<svg width="13" height="14" viewBox="0 0 13 14" fill="none" xmlns="http://www.w3.org/2000/svg">
<path d="M6.45276 6.36987C8.21175 6.36987 9.63769 4.94393 9.63769 3.18494C9.63769 1.42594 8.21175 0 6.45276 0C4.69377 0 3.26782 1.42594 3.26782 3.18494C3.26782 4.94393 4.69377 6.36987 6.45276 6.36987Z" fill="black"/>
<path d="M9.23179 6.3252C8.49078 6.98133 7.5199 7.38312 6.45273 7.38312C5.39045 7.38312 4.42338 6.98514 3.68373 6.33472C1.75476 7.38747 0.436768 9.49952 0.436768 11.935C0.436768 12.3183 0.471315 12.6929 0.533611 13.0574H12.3999C12.4622 12.6929 12.4964 12.3183 12.4964 11.935C12.4964 9.49245 11.1706 7.37442 9.23179 6.3252Z" fill="black"/>
</svg>
