<svg width="17" height="16" viewBox="0 0 17 16" fill="none" xmlns="http://www.w3.org/2000/svg">
<path d="M5.64503 5.97719C5.68107 5.97719 5.71644 5.97311 5.75248 5.97175C5.72358 5.76875 5.70318 5.56337 5.70318 5.3522C5.70318 3.61869 6.72329 2.12728 8.19362 1.43394C7.66826 0.575005 6.72499 0 5.64503 0C3.99448 0 2.65643 1.33805 2.65643 2.9886C2.65643 4.63914 3.99414 5.97719 5.64503 5.97719Z" fill="black"/>
<path d="M10.023 8.67194C11.8565 8.67194 13.3428 7.18561 13.3428 5.35214C13.3428 3.51867 11.8565 2.03235 10.023 2.03235C8.18951 2.03235 6.70319 3.51867 6.70319 5.35214C6.70319 7.18561 8.18951 8.67194 10.023 8.67194Z" fill="black"/>
<path d="M12.9191 8.625C12.1472 9.30882 11.135 9.72706 10.0227 9.72706C8.91552 9.72706 7.90765 9.31256 7.13678 8.63486C5.12614 9.73216 3.75238 11.9332 3.75238 14.4716C3.75238 14.8715 3.78808 15.2615 3.85337 15.6414H16.2206C16.2862 15.2619 16.3219 14.8715 16.3219 14.472C16.3219 11.9258 14.9403 9.7189 12.9191 8.625Z" fill="black"/>
<path d="M6.51588 7.89057C6.30233 7.58929 6.12381 7.26184 5.99154 6.91092C5.87728 6.92078 5.76167 6.92724 5.6447 6.92724C4.6477 6.92724 3.74048 6.55422 3.04646 5.94385C1.23678 6.93166 6.10352e-05 8.9134 6.10352e-05 11.1988C6.10352e-05 11.5586 0.0323647 11.9102 0.0908513 12.2522H3.17228C3.61671 10.3657 4.85241 8.78589 6.51588 7.89057Z" fill="black"/>
</svg>
