<svg width="201" height="100" viewBox="0 0 201 100" fill="none" xmlns="http://www.w3.org/2000/svg">
<g filter="url(#filter0_d_142_30)">
<path d="M64.9158 0.0123053C65.4143 0.00963197 65.9129 0.00695867 66.4266 0.00420435C67.7818 -0.00269167 69.1368 -7.86582e-05 70.492 0.00478267C71.9179 0.00867576 73.3437 0.00505461 74.7695 0.00266796C77.1629 -9.87076e-05 79.5562 0.00352688 81.9495 0.0108155C84.707 0.0191164 87.4642 0.0164264 90.2216 0.00802912C92.5995 0.00108074 94.9773 0.000141437 97.3551 0.0041216C98.7708 0.00648618 100.186 0.00685563 101.602 0.00177756C103.182 -0.00349403 104.761 0.00383536 106.34 0.0123053C106.803 0.00921715 107.265 0.00612902 107.741 0.00294731C114.129 0.0661104 118.156 3.13208 122.814 7.15379C123.91 8.09976 125.024 9.02146 126.146 9.9353C127.662 11.1711 129.155 12.43 130.64 13.7016C132.328 15.1444 134.047 16.5355 135.8 17.8969C137.731 19.3977 139.596 20.9578 141.436 22.569C141.674 22.7773 141.913 22.9856 142.158 23.2003C144.006 24.8141 144.006 24.8141 144.832 25.5414C145.385 26.025 145.942 26.5022 146.5 26.9789C146.959 27.3764 146.959 27.3764 147.428 27.7819C149.452 29.134 152.007 29.4045 154.369 29.8184C154.689 29.8755 155.008 29.9327 155.338 29.9916C156.028 30.115 156.718 30.2377 157.408 30.3599C158.505 30.5543 159.601 30.7507 160.697 30.9477C163.812 31.5075 166.927 32.0647 170.043 32.6177C171.954 32.957 173.864 33.2995 175.773 33.6442C176.496 33.7741 177.22 33.9027 177.944 34.03C190.327 36.2089 190.327 36.2089 193.819 41.1859C195.801 44.2478 196.134 46.9947 196.124 50.5629C196.126 50.9982 196.128 51.4335 196.13 51.882C196.133 52.7994 196.132 53.7168 196.129 54.6342C196.126 56.0295 196.137 57.4243 196.149 58.8195C196.149 59.7144 196.149 60.6093 196.148 61.5042C196.152 61.9171 196.156 62.33 196.161 62.7554C196.122 67.0145 194.839 69.9145 191.915 72.9803C189.43 75.2909 186.939 76.5331 183.519 76.5053C183.141 76.5029 182.764 76.5005 182.375 76.4981C182.087 76.495 181.799 76.492 181.502 76.4889C181.514 76.1292 181.514 76.1292 181.526 75.7623C181.754 69.103 181.754 69.103 179.98 62.7586C179.767 62.252 179.767 62.252 179.549 61.7351C176.663 55.4397 171.58 51.3908 165.2 49.0045C159.161 47.1499 152.911 47.764 147.19 50.3588C141.2 53.5862 137.161 58.4181 134.969 64.8801C133.821 68.9402 134.326 71.5965 134.326 76.4889C113.736 76.4889 93.1458 76.4889 71.9319 76.4889C71.9319 73.5941 71.9319 70.6993 71.9319 67.7168C71.5013 65.8463 71.1544 64.4534 70.41 62.7586C70.2678 62.4209 70.1256 62.0831 69.9791 61.7351C67.0924 55.4397 62.0102 51.3908 55.6304 49.0045C49.5909 47.1499 43.3406 47.764 37.6199 50.3588C31.6302 53.5862 27.5906 58.4181 25.3993 64.8801C24.9263 66.552 24.709 68.0824 24.7187 69.8219C24.7199 70.2115 24.7211 70.6011 24.7224 71.0026C24.7256 71.405 24.7288 71.8074 24.7321 72.222C24.7338 72.6318 24.7355 73.0416 24.7373 73.4638C24.7417 74.4722 24.748 75.4805 24.7558 76.4889C18.3793 76.7143 13.7337 76.3994 8.77687 71.9121C5.0009 67.7203 3.97461 63.5359 4.00933 57.9897C4.00831 57.4661 4.00683 56.9425 4.00492 56.4189C4.0027 55.3288 4.00589 54.2388 4.01305 53.1486C4.02173 51.7615 4.01672 50.3749 4.00762 48.9879C4.00208 47.909 4.00388 46.8303 4.00781 45.7514C4.0093 44.9947 4.00473 44.2381 4 43.4814C4.04656 38.9466 5.12532 35.9863 8.25524 32.7043C11.255 29.9151 14.1382 29.0802 18.1648 29.1854C18.8873 29.1906 19.6098 29.1948 20.3323 29.198C21.4625 29.2058 22.5909 29.2196 23.7207 29.2519C28.1272 29.5126 28.1272 29.5126 32.0615 27.9203C32.9239 26.8596 33.5871 25.8025 34.2671 24.619C34.823 23.9703 35.3922 23.3326 35.9792 22.7121C37.1641 21.4087 38.2968 20.0784 39.4032 18.7074C40.7777 17.0042 42.2144 15.3767 43.6863 13.7582C44.5565 12.7764 45.3822 11.7687 46.2038 10.7458C51.5003 4.22436 56.0691 -0.046803 64.9158 0.0123053ZM57.4747 10.8888C57.151 11.232 56.8273 11.5751 56.4938 11.9287C54.4857 14.1125 52.5584 16.3289 50.7009 18.6448C49.8492 19.6809 48.9627 20.6731 48.0585 21.6632C45.5361 24.1796 45.5361 24.1796 44.5156 27.408C44.8156 28.4551 44.8156 28.4551 45.5821 28.8719C46.5819 29.2487 47.3554 29.2951 48.4231 29.3005C48.8181 29.3042 49.2131 29.3078 49.62 29.3116C50.0449 29.3112 50.4697 29.3109 50.9074 29.3105C51.5661 29.313 51.5661 29.313 52.238 29.3155C53.167 29.3176 54.0961 29.3178 55.0251 29.3162C56.4429 29.315 57.8604 29.3239 59.2781 29.3336C60.1814 29.3345 61.0848 29.3347 61.9881 29.3343C62.4106 29.3379 62.8332 29.3414 63.2685 29.345C65.5642 29.3313 67.254 29.1905 69.2687 28.0516C71.6476 25.604 71.2535 22.8172 71.2623 19.5992C71.266 18.7855 71.2778 17.9723 71.2898 17.1587C71.2923 16.6356 71.2943 16.1124 71.2958 15.5892C71.2993 15.1176 71.3029 14.6459 71.3066 14.16C71.107 12.1528 70.5746 10.6584 69.1022 9.22018C67.4821 8.19024 66.0822 8.15862 64.1801 8.14751C63.7613 8.1421 63.3425 8.13669 62.911 8.13112C60.4032 8.30728 59.1464 9.02613 57.4747 10.8888ZM82.8223 10.2929C81.3879 12.5604 81.7393 15.2192 81.7322 17.8157C81.7285 18.6293 81.7167 19.4425 81.7047 20.2561C81.7022 20.7793 81.7002 21.3024 81.6988 21.8256C81.6952 22.2973 81.6917 22.7689 81.688 23.2548C81.8875 25.262 82.4199 26.7564 83.8923 28.1946C85.34 29.1149 86.5427 29.2433 88.2372 29.2519C88.6085 29.2547 88.9797 29.2574 89.3622 29.2602C89.767 29.2612 90.1718 29.2622 90.5889 29.2633C91.0171 29.2658 91.4453 29.2683 91.8865 29.2709C93.3037 29.2784 94.7209 29.2829 96.1381 29.2867C96.8635 29.289 96.8635 29.289 97.6035 29.2914C99.8974 29.2985 102.191 29.3041 104.485 29.3073C107.132 29.311 109.779 29.321 112.425 29.3364C114.719 29.3493 117.013 29.3538 119.307 29.3554C120.283 29.3572 121.258 29.3617 122.234 29.3687C123.597 29.378 124.959 29.3777 126.322 29.375C126.929 29.3824 126.929 29.3824 127.548 29.3898C129.682 29.4054 129.682 29.4054 131.546 28.4827C132.131 27.6906 132.131 27.6906 132.024 26.6959C131.625 25.6645 131.299 25.2645 130.45 24.5714C130.175 24.3442 129.9 24.1171 129.616 23.8831C129.287 23.6225 128.958 23.3619 128.619 23.0935C128.428 22.9409 128.237 22.7884 128.04 22.6312C126.698 21.5615 125.348 20.5027 123.995 19.4471C122.871 18.5683 121.75 17.6841 120.63 16.8004C120.189 16.4538 119.749 16.1072 119.308 15.7605C118.385 15.0331 117.463 14.3038 116.541 13.5735C116.189 13.2943 116.189 13.2943 115.829 13.0096C115.384 12.658 114.941 12.3059 114.497 11.9533C113.882 11.4666 113.262 10.9859 112.64 10.5074C112.416 10.3318 112.191 10.1561 111.959 9.97515C111.732 9.80369 111.505 9.63223 111.271 9.45558C111.069 9.30065 110.866 9.14572 110.658 8.98609C109.194 8.1564 107.556 8.16906 105.91 8.15756C105.485 8.1539 105.06 8.15024 104.621 8.14646C104.165 8.14484 103.709 8.14322 103.239 8.14155C102.767 8.13937 102.294 8.1372 101.808 8.13496C100.809 8.13136 99.8108 8.12887 98.8124 8.1274C97.7917 8.12572 96.7712 8.12041 95.7506 8.11175C94.2757 8.10012 92.8009 8.0961 91.326 8.09387C90.644 8.08681 90.644 8.08681 89.9483 8.07961C87.0977 8.08723 84.9062 8.14883 82.8223 10.2929ZM84.3203 38.8022C83.5463 40.1989 83.3798 41.3846 83.7259 42.926C84.891 44.7812 85.8283 45.4387 87.9108 45.9772C88.9358 46.0577 89.9077 46.1012 90.9307 46.0964C91.1884 46.1025 91.4461 46.1087 91.7116 46.115C94.0588 46.1173 95.8259 45.5845 97.5886 43.9987C98.3626 42.602 98.5291 41.4163 98.183 39.8749C97.0179 38.0197 96.0806 37.3622 93.9981 36.8237C92.9731 36.7432 92.0012 36.6997 90.9782 36.7045C90.7205 36.6984 90.4628 36.6922 90.1973 36.6859C87.8501 36.6836 86.0829 37.2164 84.3203 38.8022Z" fill="white"/>
<path d="M169.923 55.5694C174.109 58.7552 176.566 62.9649 177.697 68.0974C178.265 74.7932 177.206 80.328 172.896 85.6386C169.477 89.3366 164.893 91.5752 159.886 91.8885C153.575 92.1145 148.286 90.7071 143.552 86.3091C139.128 81.5342 137.772 76.39 137.986 70.0327C138.285 64.9669 140.494 60.354 144.221 56.8924C151.69 50.7993 161.891 50.0648 169.923 55.5694ZM150.474 66.916C148.905 69.1994 148.891 71.5106 149.164 74.1997C149.838 76.734 151.616 78.4613 153.729 79.9207C156.011 81.0422 158.63 81.1026 161.076 80.4481C163.408 79.4163 165.234 77.4764 166.349 75.1949C167.074 72.9042 167.069 70.194 166.094 67.9782C164.768 65.7127 162.694 63.9339 160.197 63.1393C155.846 62.6219 153.281 63.625 150.474 66.916Z" fill="white"/>
<path d="M60.3534 55.5694C64.539 58.7552 66.9958 62.9649 68.1274 68.0974C68.6947 74.7932 67.6363 80.328 63.3256 85.6386C59.9073 89.3366 55.3231 91.5752 50.316 91.8885C44.0053 92.1145 38.7162 90.7071 33.9818 86.3091C29.5582 81.5342 28.2022 76.39 28.4162 70.0327C28.7145 64.9669 30.9243 60.354 34.6506 56.8924C42.1199 50.7993 52.3209 50.0648 60.3534 55.5694ZM40.9043 66.916C39.3349 69.1994 39.321 71.5106 39.5935 74.1997C40.2682 76.734 42.0461 78.4613 44.1589 79.9207C46.4412 81.0422 49.0602 81.1026 51.5064 80.4481C53.8381 79.4163 55.6636 77.4764 56.7792 75.1949C57.5044 72.9042 57.4992 70.194 56.5236 67.9782C55.1978 65.7127 53.1244 63.9339 50.6266 63.1393C46.2763 62.6219 43.7107 63.625 40.9043 66.916Z" fill="white"/>
</g>
<defs>
<filter id="filter0_d_142_30" x="0" y="0" width="200.161" height="99.9102" filterUnits="userSpaceOnUse" color-interpolation-filters="sRGB">
<feFlood flood-opacity="0" result="BackgroundImageFix"/>
<feColorMatrix in="SourceAlpha" type="matrix" values="0 0 0 0 0 0 0 0 0 0 0 0 0 0 0 0 0 0 127 0" result="hardAlpha"/>
<feOffset dy="4"/>
<feGaussianBlur stdDeviation="2"/>
<feComposite in2="hardAlpha" operator="out"/>
<feColorMatrix type="matrix" values="0 0 0 0 0 0 0 0 0 0 0 0 0 0 0 0 0 0 0.25 0"/>
<feBlend mode="normal" in2="BackgroundImageFix" result="effect1_dropShadow_142_30"/>
<feBlend mode="normal" in="SourceGraphic" in2="effect1_dropShadow_142_30" result="shape"/>
</filter>
</defs>
</svg>
