<svg width="138" height="148" viewBox="0 0 138 148" fill="none" xmlns="http://www.w3.org/2000/svg">
<g filter="url(#filter0_d_142_34)">
<path d="M18.8536 106.953C21.5297 104.578 27.6936 99.7371 45.7044 91.1978L58.7839 109.329L63.3543 104.999L63.2942 104.879L68.9469 99.5868L74.4795 104.879L74.4494 104.909L79.0799 109.299L92.1294 91.2278C110.23 99.7672 116.214 104.518 118.92 106.923C120.123 107.976 121.175 109.72 122.137 111.975C129.474 101.451 133.774 88.6721 133.774 74.9009C133.713 39.1199 104.668 10.0742 68.8567 10.0742C33.0457 10.0742 4 39.1199 4 74.961C4 88.7623 8.29973 101.541 15.6363 112.035C16.5985 109.78 17.6509 108.006 18.8536 106.953Z" fill="#4BCCBE"/>
<path d="M68.8567 50.8125V99.9136C73.5473 99.9437 78.268 96.8467 81.8461 92.4567V62.8096C81.8461 54.8115 75.3514 50.8125 68.8567 50.8125Z" fill="#EDD9B4"/>
<path d="M55.8678 62.8397V92.4567C59.4459 96.6662 64.1365 99.8835 68.8572 99.9136V50.8125C62.3625 50.8125 55.8678 54.8115 55.8678 62.8397Z" fill="#EDD9B4"/>
<path fill-rule="evenodd" clip-rule="evenodd" d="M81.8466 62.8438V82.6887C76.9154 86.2367 72.1947 88.2513 68.8572 88.2513C65.5196 88.2513 60.799 86.2367 55.8678 82.6586V62.8137C55.8678 46.8175 81.8466 46.8175 81.8466 62.8438Z" fill="#BC9F82"/>
<path fill-rule="evenodd" clip-rule="evenodd" d="M90.5351 7.21526C96.9396 8.23758 100.458 12.6275 101.991 18.581C105.93 34.066 97.6913 67.652 69.1267 68.073C54.3933 68.2834 43.7793 64.5249 39.9306 52.618C36.0519 40.711 34.4883 21.4976 42.8773 10.7032C53.4312 -2.85753 75.6214 -2.9778 90.5351 7.21526Z" fill="#8B5E3C"/>
<path fill-rule="evenodd" clip-rule="evenodd" d="M38.7582 39.3845C37.6457 38.4825 36.443 38.0916 35.3606 38.4524C33.0754 39.2041 32.2635 43.0228 33.5865 46.9617C34.8494 50.7503 37.5555 53.276 39.8106 52.8249C41.0434 59.8308 42.9678 65.213 43.8097 66.4458C46.9367 71.0762 61.8204 83.3139 68.8563 83.3139V9.61719C45.5236 9.61719 39.1792 24.7113 38.7582 39.3845Z" fill="#EDD9B4"/>
<path fill-rule="evenodd" clip-rule="evenodd" d="M102.232 38.4524C101.21 38.1217 100.037 38.4524 98.9549 39.2943C98.5039 24.6512 92.1595 9.61719 68.8568 9.61719V83.3139C75.8927 83.3139 90.7764 71.0762 93.9035 66.4458C94.7454 65.213 96.6697 59.8308 97.9025 52.855C100.128 53.2158 102.774 50.6901 104.006 46.9617C105.299 43.0228 104.517 39.2041 102.232 38.4524Z" fill="#EDD9B4"/>
<path d="M68.9173 99.7635L55.8678 86.5938C52.1093 88.2475 48.7416 89.781 45.7048 91.2242L58.7844 109.355L68.9173 99.7635Z" fill="white"/>
<path d="M79.05 109.36L92.0996 91.2895C89.0326 89.8462 85.6349 88.2826 81.8464 86.6289L68.9171 99.7686L79.05 109.36Z" fill="white"/>
<path d="M54.7847 41.1914C56.679 41.1914 58.2425 42.9354 58.2425 45.1003C58.2425 47.2651 56.709 49.0091 54.7847 49.0091C52.8904 49.0091 51.3268 47.2651 51.3268 45.1003C51.3268 42.9354 52.8904 41.1914 54.7847 41.1914Z" fill="#342214"/>
<path d="M82.8077 41.1914C84.702 41.1914 86.2655 42.9354 86.2655 45.1003C86.2655 47.2651 84.732 49.0091 82.8077 49.0091C80.9134 49.0091 79.3499 47.2651 79.3499 45.1003C79.3499 42.9354 80.9134 41.1914 82.8077 41.1914Z" fill="#342214"/>
<path d="M61.6702 66C62.903 68.7061 65.6091 70.6004 68.7964 70.6004C71.9836 70.6004 74.6897 68.7061 75.9225 66H61.6702Z" fill="white"/>
<path fill-rule="evenodd" clip-rule="evenodd" d="M90.2049 22.7323C82.5376 27.453 73.457 25.7993 76.975 21.6499C80.523 17.5306 76.6142 20.387 69.7286 23.4239C62.8129 26.4307 54.875 25.9496 59.5656 23.3938C65.2785 20.2968 42.968 18.2823 38.9089 50.1243C32.3841 27.0321 43.4191 7.66824 68.3455 6.58579C94.9857 5.41314 105.78 26.4908 98.4135 49.4327C98.8946 36.9846 95.8878 28.8662 90.2049 22.7323Z" fill="#8B5E3C"/>
<path d="M71.2925 109.777L75.5321 139.485L71.2925 109.777Z" fill="#BE1E2D"/>
<path d="M62.1814 139.485L66.421 109.777L62.1814 139.485Z" fill="#BE1E2D"/>
<path d="M118.859 106.949C116.153 104.574 110.17 99.8233 92.0689 91.2539L79.0193 109.325L74.3889 104.935L71.2618 109.776L75.5014 139.453C85.3637 138.431 94.5946 135.213 102.653 130.282C102.653 127.125 102.653 125.201 102.653 125.201C102.653 125.201 102.893 126.975 103.254 129.891C110.651 125.261 117.025 119.157 122.017 112.001C121.115 109.776 120.062 108.002 118.859 106.949Z" fill="white"/>
<path d="M34.3986 129.92C34.7594 127.004 35 125.23 35 125.23C35 125.23 35 127.124 35 130.311C43.0582 135.242 52.2891 138.49 62.1514 139.482L66.391 109.805L63.3241 105.054L58.7537 109.384L45.7042 91.2227C27.6934 99.762 21.5295 104.603 18.8534 106.978C17.6507 108.031 16.5983 109.805 15.6362 112.03C20.6275 119.156 27.0019 125.26 34.3986 129.92Z" fill="white"/>
<path d="M74.4201 104.969L74.4502 104.909L68.9177 99.6172L63.2649 104.909L63.3551 105.029L68.9177 99.7675L74.4201 104.969Z" fill="#EF3F6C"/>
<path d="M71.292 109.777L74.4191 104.936L68.9166 99.7344L63.354 105.026L66.421 109.777L62.1814 139.454C64.3764 139.665 66.6014 139.785 68.8565 139.785C71.1116 139.785 73.3366 139.665 75.5316 139.454L71.292 109.777Z" fill="black"/>
<path d="M34.3992 129.925C34.6096 130.045 34.8201 130.196 35.0306 130.316C35.0306 127.159 35.0306 125.234 35.0306 125.234C35.0306 125.234 34.76 127.008 34.3992 129.925Z" fill="white"/>
<path d="M102.683 130.285C102.894 130.164 103.104 130.014 103.315 129.894C102.954 126.977 102.713 125.203 102.713 125.203C102.713 125.203 102.713 127.127 102.683 130.285Z" fill="white"/>
</g>
<defs>
<filter id="filter0_d_142_34" x="0" y="0" width="137.774" height="147.785" filterUnits="userSpaceOnUse" color-interpolation-filters="sRGB">
<feFlood flood-opacity="0" result="BackgroundImageFix"/>
<feColorMatrix in="SourceAlpha" type="matrix" values="0 0 0 0 0 0 0 0 0 0 0 0 0 0 0 0 0 0 127 0" result="hardAlpha"/>
<feOffset dy="4"/>
<feGaussianBlur stdDeviation="2"/>
<feComposite in2="hardAlpha" operator="out"/>
<feColorMatrix type="matrix" values="0 0 0 0 0 0 0 0 0 0 0 0 0 0 0 0 0 0 0.25 0"/>
<feBlend mode="normal" in2="BackgroundImageFix" result="effect1_dropShadow_142_34"/>
<feBlend mode="normal" in="SourceGraphic" in2="effect1_dropShadow_142_34" result="shape"/>
</filter>
</defs>
</svg>
