<svg width="548" height="371" viewBox="0 0 548 371" fill="none" xmlns="http://www.w3.org/2000/svg">
<g filter="url(#filter0_d_153_4)">
<mask id="path-1-inside-1_153_4" fill="white">
<path fill-rule="evenodd" clip-rule="evenodd" d="M512 363C529.673 363 544 348.673 544 331L544 32C544 14.3269 529.673 0 512 0L185.5 0H177C174.92 0 172.887 0.198395 170.918 0.577271C77.4967 8.004 4 86.169 4 181.5C4 276.831 77.4967 354.996 170.918 362.423C172.887 362.802 174.92 363 177 363H185.5L512 363Z"/>
</mask>
<path fill-rule="evenodd" clip-rule="evenodd" d="M512 363C529.673 363 544 348.673 544 331L544 32C544 14.3269 529.673 0 512 0L185.5 0H177C174.92 0 172.887 0.198395 170.918 0.577271C77.4967 8.004 4 86.169 4 181.5C4 276.831 77.4967 354.996 170.918 362.423C172.887 362.802 174.92 363 177 363H185.5L512 363Z" fill="#FEDA59"/>
<path d="M544 331H552H544ZM170.918 0.577271L171.552 8.55211L171.994 8.51697L172.429 8.43317L170.918 0.577271ZM170.918 362.423L172.429 354.567L171.994 354.483L171.552 354.448L170.918 362.423ZM536 331C536 344.255 525.255 355 512 355V371C534.091 371 552 353.091 552 331H536ZM536 32L536 331H552L552 32H536ZM512 8C525.255 8 536 18.7452 536 32H552C552 9.90859 534.091 -8 512 -8V8ZM185.5 8L512 8V-8L185.5 -8V8ZM177 8H185.5V-8H177V8ZM172.429 8.43317C173.903 8.14964 175.43 8 177 8V-8C174.41 -8 171.871 -7.75285 169.406 -7.27863L172.429 8.43317ZM12 181.5C12 90.3747 82.2567 15.6508 171.552 8.55211L170.284 -7.39757C72.7367 0.357162 -4 81.9632 -4 181.5H12ZM171.552 354.448C82.2566 347.349 12 272.625 12 181.5H-4C-4 281.037 72.7367 362.643 170.284 370.398L171.552 354.448ZM177 355C175.43 355 173.903 354.85 172.429 354.567L169.406 370.279C171.871 370.753 174.41 371 177 371V355ZM185.5 355H177V371H185.5V355ZM512 355L185.5 355V371L512 371V355Z" fill="white" mask="url(#path-1-inside-1_153_4)"/>
</g>
<defs>
<filter id="filter0_d_153_4" x="0" y="0" width="548" height="371" filterUnits="userSpaceOnUse" color-interpolation-filters="sRGB">
<feFlood flood-opacity="0" result="BackgroundImageFix"/>
<feColorMatrix in="SourceAlpha" type="matrix" values="0 0 0 0 0 0 0 0 0 0 0 0 0 0 0 0 0 0 127 0" result="hardAlpha"/>
<feOffset dy="4"/>
<feGaussianBlur stdDeviation="2"/>
<feComposite in2="hardAlpha" operator="out"/>
<feColorMatrix type="matrix" values="0 0 0 0 0 0 0 0 0 0 0 0 0 0 0 0 0 0 0.25 0"/>
<feBlend mode="normal" in2="BackgroundImageFix" result="effect1_dropShadow_153_4"/>
<feBlend mode="normal" in="SourceGraphic" in2="effect1_dropShadow_153_4" result="shape"/>
</filter>
</defs>
</svg>
