<?xml version="1.0" standalone="no"?>
<!DOCTYPE svg PUBLIC "-//W3C//DTD SVG 20010904//EN"
 "http://www.w3.org/TR/2001/REC-SVG-20010904/DTD/svg10.dtd">
<svg version="1.0" xmlns="http://www.w3.org/2000/svg"
 width="225.000000pt" height="225.000000pt" viewBox="0 0 225.000000 225.000000"
 preserveAspectRatio="xMidYMid meet">

<g transform="translate(0.000000,225.000000) scale(0.100000,-0.100000)"
fill="#000000" stroke="none">
<path d="M954 2145 c-194 -34 -343 -123 -403 -240 -76 -149 -89 -464 -30 -706
20 -79 21 -98 11 -145 -27 -130 -87 -216 -190 -272 l-54 -30 69 -26 c84 -32
192 -56 254 -56 63 0 165 33 213 70 38 29 63 29 81 0 8 -13 -45 -110 -91 -167
-56 -68 -85 -83 -247 -123 -191 -47 -312 -92 -386 -141 -67 -44 -81 -70 -89
-156 l-5 -63 1038 0 1038 0 -5 63 c-7 84 -22 110 -82 152 -77 52 -183 92 -373
140 -100 25 -185 52 -202 64 -44 32 -95 94 -131 163 l-33 61 22 18 c21 17 23
16 72 -17 119 -80 240 -83 436 -12 46 16 83 33 83 36 0 4 -25 20 -55 36 -91
47 -151 135 -177 258 -10 46 -8 75 12 193 27 169 37 418 21 525 -22 144 -113
286 -200 310 -55 15 -91 12 -147 -14 l-51 -24 -26 33 c-60 75 -198 101 -373
70z"/>
</g>
</svg>
