<?xml version="1.0" standalone="no"?>
<!DOCTYPE svg PUBLIC "-//W3C//DTD SVG 20010904//EN"
 "http://www.w3.org/TR/2001/REC-SVG-20010904/DTD/svg10.dtd">
<svg version="1.0" xmlns="http://www.w3.org/2000/svg"
 width="225.000000pt" height="224.000000pt" viewBox="0 0 225.000000 224.000000"
 preserveAspectRatio="xMidYMid meet">

<g transform="translate(0.000000,224.000000) scale(0.100000,-0.100000)"
fill="#000000" stroke="none">
<path d="M1015 2227 c-105 -28 -188 -76 -298 -174 -62 -55 -207 -212 -207
-225 0 -3 13 -9 29 -13 29 -6 60 -34 80 -71 25 -50 41 -316 21 -353 -8 -16
-11 -50 -8 -103 5 -90 25 -127 76 -143 21 -6 32 -16 32 -27 0 -34 31 -93 69
-133 22 -22 42 -51 46 -64 18 -59 216 -104 369 -83 103 13 163 41 181 85 7 18
30 48 50 67 44 42 57 64 64 109 5 27 12 36 40 45 29 9 37 19 57 71 37 100 35
148 -5 173 l-29 18 29 38 c35 48 64 124 73 193 14 113 -33 268 -109 351 -36
41 -124 92 -156 92 -10 0 -44 23 -76 51 -103 92 -216 124 -328 96z"/>
<path d="M775 783 c-54 -31 -121 -50 -301 -84 -240 -46 -302 -74 -349 -153
-50 -85 -79 -201 -105 -421 -6 -50 -13 -98 -16 -107 -5 -17 53 -18 1121 -18
1068 0 1126 1 1121 18 -3 9 -12 73 -21 142 -38 297 -88 420 -188 469 -24 12
-96 33 -158 46 -270 59 -343 78 -394 104 l-54 28 -25 -76 c-14 -42 -48 -150
-76 -239 -28 -90 -53 -162 -55 -160 -1 1 -21 65 -44 142 l-42 139 24 26 c35
37 42 67 23 96 -15 23 -23 25 -97 25 -44 0 -89 -5 -100 -10 -29 -16 -25 -71 8
-110 l26 -32 -38 -131 c-20 -73 -40 -135 -44 -139 -3 -4 -41 95 -84 220 -43
125 -81 232 -85 238 -5 7 -21 2 -47 -13z"/>
</g>
</svg>
