<svg width="62" height="41" viewBox="0 0 62 41" fill="none" xmlns="http://www.w3.org/2000/svg">
<path fill-rule="evenodd" clip-rule="evenodd" d="M17.4268 1.64023C18.3494 1.09748 19.5373 1.40548 20.0801 2.32812L33.0014 24.2945C33.5444 25.2174 33.2363 26.4051 32.3137 26.9478C31.3909 27.4908 30.2032 27.1827 29.6602 26.2601L16.7389 4.29355C16.1961 3.37091 16.5041 2.18296 17.4268 1.64023Z" fill="black"/>
<path fill-rule="evenodd" clip-rule="evenodd" d="M13.887 2.01866C13.887 0.948224 14.7547 0.0804443 15.8252 0.0804443H23.5781C24.6485 0.0804443 25.5163 0.948224 25.5163 2.01866C25.5163 3.0891 24.6485 3.95688 23.5781 3.95688H15.8252C14.7547 3.95688 13.887 3.0891 13.887 2.01866Z" fill="black"/>
<path fill-rule="evenodd" clip-rule="evenodd" d="M21.8445 8.90479C22.1728 8.24815 22.8439 7.83337 23.5781 7.83337H40.376C41.0476 7.83337 41.6715 8.18119 42.0247 8.75261C42.3777 9.32402 42.41 10.0376 42.1095 10.6384L34.3566 26.1441C34.0284 26.8008 33.3573 27.2156 32.6231 27.2156H15.8252C15.1535 27.2156 14.5296 26.8677 14.1764 26.2963C13.8233 25.7249 13.7912 25.0114 14.0916 24.4106L21.8445 8.90479ZM24.776 11.7098L18.9613 23.3391H31.4253L37.2399 11.7098H24.776Z" fill="black"/>
<path fill-rule="evenodd" clip-rule="evenodd" d="M13.2409 19.4626C8.60228 19.4626 4.84195 23.223 4.84195 27.8616C4.84195 32.5001 8.60228 36.2605 13.2409 36.2605C17.8795 36.2605 21.6398 32.5001 21.6398 27.8616C21.6398 23.223 17.8795 19.4626 13.2409 19.4626ZM0.965515 27.8616C0.965515 21.0819 6.4614 15.5862 13.2409 15.5862C20.0204 15.5862 25.5163 21.0819 25.5163 27.8616C25.5163 34.6412 20.0204 40.1369 13.2409 40.1369C6.4614 40.1369 0.965515 34.6412 0.965515 27.8616Z" fill="black"/>
<path fill-rule="evenodd" clip-rule="evenodd" d="M49.421 19.4626C44.7824 19.4626 41.022 23.223 41.022 27.8616C41.022 32.5001 44.7824 36.2605 49.421 36.2605C54.0595 36.2605 57.8199 32.5001 57.8199 27.8616C57.8199 23.223 54.0595 19.4626 49.421 19.4626ZM37.1456 27.8616C37.1456 21.0819 42.6413 15.5862 49.421 15.5862C56.2006 15.5862 61.6963 21.0819 61.6963 27.8616C61.6963 34.6412 56.2006 40.1369 49.421 40.1369C42.6413 40.1369 37.1456 34.6412 37.1456 27.8616Z" fill="black"/>
<path fill-rule="evenodd" clip-rule="evenodd" d="M37.4585 2.2546C37.8162 1.70448 38.4276 1.37256 39.0838 1.37256H46.8367C49.3344 1.37256 51.3592 3.39735 51.3592 5.89507C51.3592 8.39279 49.3344 10.4176 46.8367 10.4176H46.602C45.5316 10.4176 44.6638 9.5498 44.6638 8.47936C44.6638 7.40892 45.5316 6.54114 46.602 6.54114H46.8367C47.1935 6.54114 47.4827 6.25188 47.4827 5.89507C47.4827 5.53825 47.1935 5.249 46.8367 5.249H42.0663L51.1922 25.7822C51.6269 26.7604 51.1863 27.9057 50.2081 28.3407C49.23 28.7753 48.0846 28.3347 47.6497 27.3566L37.3125 4.09795C37.0461 3.4984 37.1011 2.80475 37.4585 2.2546Z" fill="black"/>
</svg>
