<svg width="29" height="46" viewBox="0 0 29 46" fill="none" xmlns="http://www.w3.org/2000/svg">
<path d="M21.4568 12.409C23.6286 13.6849 25.432 15.5207 26.6855 17.7317C27.9391 19.9426 28.5986 22.4507 28.5976 25.0036V41.6219H20.0899C19.6684 42.8382 18.8867 43.8915 17.8526 44.6365C16.8185 45.3815 15.5828 45.7816 14.316 45.7816C13.0492 45.7816 11.8136 45.3815 10.7795 44.6365C9.74539 43.8915 8.9637 42.8382 8.54218 41.6219H0.0344248V25.0036C0.0335095 22.4507 0.693008 19.9426 1.94656 17.7317C3.20011 15.5207 5.00349 13.6849 7.17523 12.409C6.83999 11.796 6.58289 11.1419 6.41014 10.4626H0.0344248V6.30804H6.41218C6.86601 4.52522 7.88843 2.94632 9.31897 1.81917C10.7495 0.69202 12.5072 0.0804443 14.316 0.0804443C16.1249 0.0804443 17.8826 0.69202 19.3131 1.81917C20.7436 2.94632 21.7661 4.52522 22.2199 6.30804H28.5976V10.4626H22.2199C22.0465 11.1481 21.7874 11.8025 21.4589 12.409H21.4568ZM18.4924 15.525C17.2703 16.2686 15.8421 16.6945 14.316 16.6945C12.8456 16.6967 11.4022 16.2925 10.1397 15.525C8.34479 16.3453 6.82111 17.6765 5.75218 19.3582C4.68325 21.0399 4.11466 23.0005 4.11488 25.0036V37.4674H8.19534V29.1582C8.19534 27.5054 8.8402 25.9203 9.98805 24.7516C11.1359 23.5829 12.6927 22.9263 14.316 22.9263C15.9393 22.9263 17.4962 23.5829 18.644 24.7516C19.7919 25.9203 20.4367 27.5054 20.4367 29.1582V37.4674H24.5172V25.0036C24.5174 23.0005 23.9488 21.0399 22.8799 19.3582C21.811 17.6765 20.2873 16.3453 18.4924 15.525ZM14.316 27.0809C13.7749 27.0809 13.256 27.2998 12.8734 27.6893C12.4908 28.0789 12.2758 28.6073 12.2758 29.1582V39.5446C12.2758 40.0956 12.4908 40.6239 12.8734 41.0135C13.256 41.4031 13.7749 41.6219 14.316 41.6219C14.8571 41.6219 15.3761 41.4031 15.7587 41.0135C16.1413 40.6239 16.3563 40.0956 16.3563 39.5446V29.1582C16.3563 28.6073 16.1413 28.0789 15.7587 27.6893C15.3761 27.2998 14.8571 27.0809 14.316 27.0809ZM14.316 12.5399C15.3982 12.5399 16.4361 12.1022 17.2014 11.3231C17.9666 10.5439 18.3965 9.48719 18.3965 8.38533C18.3965 7.28346 17.9666 6.22673 17.2014 5.4476C16.4361 4.66846 15.3982 4.23075 14.316 4.23075C13.2338 4.23075 12.1959 4.66846 11.4307 5.4476C10.6655 6.22673 10.2356 7.28346 10.2356 8.38533C10.2356 9.48719 10.6655 10.5439 11.4307 11.3231C12.1959 12.1022 13.2338 12.5399 14.316 12.5399Z" fill="black"/>
</svg>
