<svg width="91" height="41" viewBox="0 0 91 41" fill="none" xmlns="http://www.w3.org/2000/svg">
<path d="M73.9936 27.542C75.9195 27.542 77.4801 29.1026 77.4801 31.0272C77.4801 32.1217 76.9754 33.099 76.1841 33.7379C75.5865 34.2233 74.8236 34.5124 73.9936 34.5124C73.1636 34.5124 72.402 34.2233 71.8044 33.7379C71.0131 33.099 70.5084 32.1217 70.5084 31.0272C70.5084 29.1025 72.069 27.542 73.9936 27.542Z" fill="black"/>
<path d="M16.059 27.542C17.9836 27.542 19.5443 29.1026 19.5443 31.0272C19.5443 32.1217 19.0395 33.099 18.2483 33.7379C17.6506 34.2233 16.889 34.5124 16.059 34.5124C15.229 34.5124 14.4662 34.2233 13.8685 33.7379C13.0785 33.099 12.5738 32.1217 12.5738 31.0272C12.5738 29.1025 14.133 27.542 16.059 27.542Z" fill="black"/>
<path d="M8.4472 4.17676C9.45662 3.2009 10.6764 2.56323 11.975 2.32314C12.0239 2.31411 12.0729 2.30507 12.1217 2.29604C12.6894 2.19187 13.1019 1.69813 13.1019 1.121C13.1019 0.590731 13.5317 0.160889 14.062 0.160889C14.796 0.160889 15.5274 0.251115 16.2394 0.429378L19.2443 1.18167C37.9001 -1.22778 50.2582 1.25124 54.2533 2.27151C55.0781 2.48191 55.8849 2.77235 56.6684 3.13765L70.9901 9.81637C71.8717 10.2268 72.7831 10.5418 73.715 10.7587L80.0749 12.2315C84.798 13.3248 88.7079 17.1547 90.4363 22.3786L90.7487 27.4658C90.9514 30.7858 88.6899 33.6088 85.8255 33.6088H82.956C81.7982 37.3961 78.2755 40.1494 74.1087 40.1494C69.9433 40.1494 66.4206 37.3961 65.2627 33.6088H25.0201C23.8622 37.3961 20.3395 40.1494 16.1741 40.1494C12.0086 40.1494 8.48592 37.3961 7.32677 33.6088H6.01142C3.48786 33.6088 1.36962 31.3962 1.10371 28.4791C0.719048 24.2478 0.558983 18.2738 2.02019 14.0451C3.63488 9.37232 6.5715 5.98637 8.4472 4.17676ZM86.3341 27.0359C86.9756 27.0359 87.4958 26.189 87.4958 25.1436C87.4958 24.0979 86.9756 23.25 86.3341 23.25C85.6926 23.25 85.1724 24.0979 85.1724 25.1436C85.1724 26.189 85.6924 27.0359 86.3341 27.0359ZM84.8806 21.1961C85.6125 21.3975 86.236 20.6448 85.9094 19.9595C85.3053 18.6919 84.2288 17.05 82.5055 16.3117C80.3899 15.4055 78.655 15.772 77.8108 16.0703C77.4455 16.2006 77.2054 16.5556 77.2286 16.9429C77.2712 17.6722 77.5849 18.8417 79.0629 19.4096C80.4906 19.9595 83.1471 20.7185 84.8806 21.1961ZM68.7312 33.6088C69.7251 35.5734 71.762 36.9223 74.1087 36.9223C76.4567 36.9223 78.4937 35.5734 79.4876 33.6088C79.9007 32.7942 80.133 31.8726 80.133 30.8981C80.133 27.5768 77.4313 24.8738 74.1087 24.8738C70.7874 24.8738 68.0858 27.5767 68.0858 30.8981C68.0858 31.8725 68.3181 32.7942 68.7312 33.6088ZM59.5352 12.1462C59.6888 12.5205 60.0503 12.7619 60.4556 12.7619H69.6733C69.6579 12.754 69.6424 12.7477 69.6269 12.7412L57.4325 7.05517L59.5352 12.1462ZM42.4681 18.0118H46.0398C46.6452 18.0118 47.137 17.5199 47.137 16.9146C47.137 16.6111 47.0144 16.3376 46.8156 16.1388C46.6168 15.94 46.3432 15.8174 46.0398 15.8174H42.4681C41.8627 15.8174 41.3709 16.3079 41.3709 16.9146C41.3709 17.5199 41.8627 18.0118 42.4681 18.0118ZM40.5253 12.4573L51.1901 12.6935C51.527 12.7038 51.8316 12.5463 52.0265 12.2714C52.2201 11.995 52.2627 11.6568 52.1427 11.342L49.5585 4.58066C46.9691 4.13146 43.3961 3.6705 38.9518 3.47959L40.5253 12.4573ZM29.037 12.2043L38.2883 12.4082L36.7122 3.40989C36.0345 3.39569 35.3426 3.38794 34.6314 3.38794C32.4009 3.38794 30.1342 3.45894 27.8391 3.59964C28.26 6.79829 28.7233 10.1454 29.037 12.2043ZM25.6461 3.75583C23.7292 3.90943 21.7943 4.1108 19.8439 4.36006L15.8062 8.78113C15.5919 9.01593 15.5028 9.32973 15.5635 9.64211C15.6242 9.95319 15.8217 10.2114 16.1082 10.3506L19.3133 11.8983C19.4424 11.9616 19.5805 11.9951 19.7238 11.9979L26.8104 12.154C26.471 9.92221 26.0334 6.6989 25.6461 3.75583ZM24.9555 18.0118C25.5622 18.0118 26.0527 17.5199 26.0527 16.9146C26.0527 16.6111 25.9301 16.3376 25.7313 16.1388C25.5325 15.94 25.2589 15.8174 24.9555 15.8174H21.3851C20.7784 15.8174 20.2879 16.3079 20.2879 16.9146C20.2879 17.5199 20.7784 18.0118 21.3851 18.0118H24.9555ZM10.7951 33.6088C11.789 35.5734 13.8259 36.9223 16.1739 36.9223C18.5206 36.9223 20.5576 35.5734 21.5515 33.6088C21.9646 32.7942 22.1969 31.8726 22.1969 30.8981C22.1969 27.5768 19.4952 24.8738 16.1739 24.8738C12.8514 24.8738 10.1497 27.5767 10.1497 30.8981C10.1497 31.8725 10.3821 32.7942 10.7951 33.6088ZM4.11894 23.4706C4.4352 23.6952 4.86375 23.6797 5.16709 23.4383C5.868 22.8794 7.09816 21.604 7.44926 19.3296C7.73582 17.4747 6.91357 15.6934 6.15715 14.5097C5.74924 13.8694 4.78114 13.9985 4.56428 14.7265C4.05053 16.4511 3.28895 19.105 2.99851 20.6075C2.69775 22.1631 3.524 23.0485 4.11894 23.4706Z" fill="black"/>
</svg>
