<svg width="85" height="41" viewBox="0 0 85 41" fill="none" xmlns="http://www.w3.org/2000/svg">
<path d="M26.9249 0.774654C27.1423 0.773488 27.3597 0.772322 27.5838 0.771121C28.1749 0.768113 28.7659 0.769253 29.3569 0.771373C29.9788 0.773071 30.6007 0.771492 31.2226 0.770451C32.2665 0.769244 33.3103 0.770825 34.3542 0.774004C35.5568 0.777625 36.7594 0.776452 37.962 0.772789C38.9991 0.769758 40.0362 0.769349 41.0733 0.771085C41.6908 0.772116 42.3082 0.772277 42.9256 0.770062C43.6145 0.767763 44.3034 0.77096 44.9923 0.774654C45.1939 0.773307 45.3955 0.77196 45.6032 0.770573C48.3893 0.798121 50.1457 2.13535 52.1774 3.88943C52.6553 4.30201 53.141 4.70401 53.6306 5.10259C54.2917 5.64157 54.9428 6.19067 55.5907 6.74526C56.3268 7.37453 57.0764 7.98127 57.8412 8.57507C58.6832 9.22964 59.4968 9.91006 60.2991 10.6128C60.4032 10.7037 60.5072 10.7945 60.6144 10.8881C61.4202 11.592 61.4202 11.592 61.7806 11.9092C62.0215 12.1201 62.2647 12.3282 62.5081 12.5362C62.7083 12.7096 62.7083 12.7096 62.9126 12.8864C63.7956 13.4761 64.91 13.5941 65.9401 13.7746C66.0794 13.7996 66.2188 13.8245 66.3625 13.8502C66.6635 13.904 66.9645 13.9575 67.2656 14.0108C67.7438 14.0956 68.2219 14.1813 68.6999 14.2672C70.0585 14.5113 71.4173 14.7544 72.7764 14.9956C73.6097 15.1435 74.4427 15.2929 75.2755 15.4433C75.591 15.4999 75.9066 15.556 76.2223 15.6115C81.623 16.5619 81.623 16.5619 83.1463 18.7326C84.0108 20.0681 84.1558 21.2661 84.1516 22.8224C84.1525 23.0122 84.1533 23.2021 84.1542 23.3977C84.1553 23.7978 84.1551 24.198 84.1537 24.5981C84.1522 25.2067 84.157 25.815 84.1623 26.4235C84.1626 26.8138 84.1625 27.2041 84.162 27.5944C84.1638 27.7745 84.1657 27.9546 84.1676 28.1402C84.1508 29.9978 83.5911 31.2626 82.3159 32.5998C81.2321 33.6076 80.1454 34.1493 78.6537 34.1372C78.4891 34.1362 78.3244 34.1351 78.1548 34.1341C78.0292 34.1327 77.9036 34.1314 77.7741 34.13C77.7793 33.9732 77.7793 33.9732 77.7847 33.8132C77.884 30.9087 77.884 30.9087 77.1104 28.1416C77.0173 27.9206 77.0173 27.9206 76.9224 27.6952C75.6634 24.9494 73.4468 23.1835 70.6642 22.1427C68.0301 21.3338 65.304 21.6017 62.8089 22.7334C60.1965 24.141 58.4346 26.2484 57.4789 29.0669C56.9778 30.8377 57.1982 31.9962 57.1982 34.13C48.2178 34.13 39.2374 34.13 29.9849 34.13C29.9849 32.8675 29.9849 31.6049 29.9849 30.3041C29.7971 29.4883 29.6458 28.8807 29.3212 28.1416C29.2592 27.9943 29.1971 27.8469 29.1332 27.6952C27.8742 24.9494 25.6576 23.1835 22.875 22.1427C20.2409 21.3338 17.5148 21.6017 15.0197 22.7334C12.4073 24.141 10.6454 26.2484 9.68968 29.0669C9.48336 29.796 9.38859 30.4636 9.39282 31.2222C9.39335 31.3922 9.39389 31.5621 9.39444 31.7372C9.39583 31.9127 9.39722 32.0882 9.39865 32.269C9.3994 32.4478 9.40015 32.6265 9.40092 32.8106C9.40287 33.2505 9.4056 33.6902 9.40902 34.13C6.62787 34.2284 4.60171 34.091 2.43976 32.1339C0.792865 30.3056 0.345248 28.4806 0.360395 26.0616C0.359946 25.8332 0.359301 25.6049 0.35847 25.3765C0.357499 24.901 0.358891 24.4256 0.362015 23.9501C0.3658 23.3452 0.363614 22.7404 0.359645 22.1355C0.35723 21.6649 0.358016 21.1944 0.359729 20.7238C0.360377 20.3938 0.358386 20.0638 0.356323 19.7338C0.37663 17.7559 0.847133 16.4648 2.21225 15.0333C3.52063 13.8168 4.77813 13.4527 6.53433 13.4985C6.84945 13.5008 7.16458 13.5027 7.47971 13.5041C7.97261 13.5074 8.4648 13.5135 8.95752 13.5276C10.8794 13.6413 10.8794 13.6413 12.5954 12.9468C12.9716 12.4841 13.2608 12.0231 13.5574 11.5069C13.7998 11.224 14.0481 10.9458 14.3041 10.6752C14.8209 10.1067 15.3149 9.52653 15.7975 8.92856C16.397 8.18571 17.0236 7.47588 17.6656 6.76995C18.0451 6.34173 18.4053 5.90223 18.7636 5.45607C21.0737 2.61175 23.0663 0.748874 26.9249 0.774654ZM23.6794 5.51845C23.5382 5.66813 23.3971 5.8178 23.2516 5.97201C22.3757 6.9245 21.5351 7.89116 20.725 8.90126C20.3535 9.35314 19.9669 9.78588 19.5725 10.2177C18.4724 11.3153 18.4724 11.3153 18.0273 12.7233C18.1581 13.18 18.1581 13.18 18.4924 13.3618C18.9285 13.5262 19.2659 13.5464 19.7315 13.5488C19.9038 13.5504 20.0761 13.5519 20.2536 13.5536C20.4389 13.5534 20.6242 13.5533 20.8151 13.5531C21.1024 13.5542 21.1024 13.5542 21.3954 13.5553C21.8006 13.5562 22.2058 13.5563 22.611 13.5556C23.2294 13.5551 23.8476 13.559 24.466 13.5632C24.86 13.5636 25.254 13.5637 25.6479 13.5635C25.8322 13.565 26.0165 13.5666 26.2064 13.5682C27.2077 13.5622 27.9447 13.5008 28.8234 13.004C29.8609 11.9365 29.6891 10.721 29.6929 9.3175C29.6945 8.96263 29.6997 8.60793 29.7049 8.2531C29.706 8.02491 29.7069 7.79673 29.7075 7.56854C29.7091 7.36284 29.7106 7.15713 29.7122 6.94519C29.6252 6.06977 29.393 5.41796 28.7508 4.79069C28.0442 4.34148 27.4336 4.32768 26.604 4.32284C26.4213 4.32048 26.2387 4.31812 26.0505 4.31569C24.9567 4.39252 24.4085 4.70605 23.6794 5.51845ZM34.7348 5.25854C34.1092 6.24752 34.2625 7.40716 34.2594 8.53962C34.2578 8.89448 34.2526 9.24919 34.2474 9.60401C34.2463 9.8322 34.2454 10.0604 34.2448 10.2886C34.2432 10.4943 34.2417 10.7 34.2401 10.9119C34.3271 11.7873 34.5593 12.4392 35.2015 13.0664C35.8329 13.4678 36.3575 13.5238 37.0965 13.5276C37.2585 13.5288 37.4204 13.5299 37.5872 13.5312C37.7637 13.5316 37.9403 13.5321 38.1222 13.5325C38.309 13.5336 38.4958 13.5347 38.6882 13.5358C39.3063 13.5391 39.9244 13.5411 40.5425 13.5427C40.8589 13.5437 40.8589 13.5437 41.1817 13.5448C42.1821 13.5479 43.1826 13.5503 44.183 13.5517C45.3375 13.5533 46.4919 13.5577 47.6463 13.5644C48.6467 13.57 49.6472 13.572 50.6476 13.5727C51.0732 13.5735 51.4987 13.5754 51.9243 13.5785C52.5186 13.5826 53.1128 13.5824 53.7071 13.5813C53.9719 13.5845 53.9719 13.5845 54.2421 13.5877C55.1727 13.5945 55.1727 13.5945 55.9858 13.1921C56.2409 12.8466 56.2409 12.8466 56.1942 12.4127C56.02 11.9629 55.878 11.7884 55.5078 11.4861C55.3878 11.3871 55.2678 11.288 55.1441 11.1859C55.0006 11.0723 54.8571 10.9586 54.7092 10.8415C54.6258 10.775 54.5424 10.7085 54.4565 10.6399C53.8713 10.1734 53.2825 9.71158 52.6925 9.25118C52.202 8.86789 51.7134 8.48226 51.2246 8.09682C51.0325 7.94563 50.8404 7.79445 50.6483 7.64327C50.2455 7.32601 49.8433 7.00793 49.4414 6.68938C49.2876 6.56763 49.2876 6.56763 49.1306 6.44343C48.9369 6.29008 48.7432 6.13653 48.5498 5.98273C48.2814 5.77047 48.0112 5.5608 47.7399 5.35211C47.6419 5.2755 47.544 5.1989 47.443 5.11997C47.344 5.04519 47.245 4.9704 47.143 4.89335C47.0546 4.82578 46.9663 4.75821 46.8752 4.68859C46.2367 4.32672 45.5226 4.33224 44.8047 4.32722C44.6192 4.32563 44.4336 4.32403 44.2425 4.32238C44.0435 4.32167 43.8445 4.32097 43.6395 4.32024C43.4335 4.31929 43.2275 4.31834 43.0153 4.31737C42.5798 4.3158 42.1444 4.31471 41.7089 4.31407C41.2638 4.31333 40.8187 4.31102 40.3735 4.30724C39.7302 4.30217 39.087 4.30042 38.4437 4.29945C38.1463 4.29636 38.1463 4.29636 37.8428 4.29322C36.5995 4.29655 35.6437 4.32341 34.7348 5.25854ZM35.3882 17.6929C35.0506 18.3021 34.978 18.8192 35.1289 19.4916C35.6371 20.3007 36.0459 20.5875 36.9542 20.8223C37.4012 20.8574 37.8251 20.8764 38.2713 20.8743C38.3837 20.877 38.4961 20.8797 38.6119 20.8824C39.6356 20.8834 40.4064 20.651 41.1751 19.9594C41.5127 19.3502 41.5854 18.8331 41.4344 18.1608C40.9262 17.3517 40.5174 17.0649 39.6091 16.83C39.1621 16.7949 38.7382 16.7759 38.292 16.778C38.1796 16.7753 38.0672 16.7727 37.9514 16.7699C36.9277 16.7689 36.157 17.0013 35.3882 17.6929Z" fill="black"/>
<path d="M72.7241 25.0063C74.5497 26.3958 75.6212 28.2319 76.1148 30.4704C76.3622 33.3908 75.9006 35.8048 74.0205 38.1211C72.5296 39.7339 70.5302 40.7103 68.3463 40.8469C65.5939 40.9455 63.287 40.3317 61.2221 38.4135C59.2928 36.3309 58.7013 34.0872 58.7947 31.3145C58.9248 29.105 59.8886 27.0931 61.5138 25.5833C64.7716 22.9258 69.2208 22.6055 72.7241 25.0063ZM64.2414 29.9551C63.5569 30.951 63.5508 31.9591 63.6697 33.132C63.9639 34.2373 64.7394 34.9907 65.6609 35.6272C66.6563 36.1163 67.7986 36.1426 68.8655 35.8572C69.8825 35.4072 70.6787 34.5611 71.1652 33.566C71.4816 32.5669 71.4793 31.3848 71.0538 30.4184C70.4755 29.4303 69.5712 28.6545 68.4818 28.3079C66.5844 28.0823 65.4654 28.5198 64.2414 29.9551Z" fill="black"/>
<path d="M24.9349 25.0063C26.7605 26.3958 27.8321 28.2319 28.3256 30.4704C28.573 33.3908 28.1114 35.8048 26.2313 38.1211C24.7404 39.7339 22.741 40.7103 20.5571 40.8469C17.8047 40.9455 15.4978 40.3317 13.4329 38.4135C11.5036 36.3309 10.9121 34.0872 11.0055 31.3145C11.1356 29.105 12.0994 27.0931 13.7246 25.5833C16.9824 22.9258 21.4316 22.6055 24.9349 25.0063ZM16.4522 29.9551C15.7677 30.951 15.7617 31.9591 15.8805 33.132C16.1748 34.2373 16.9502 34.9907 17.8717 35.6272C18.8671 36.1163 20.0094 36.1426 21.0763 35.8572C22.0933 35.4072 22.8895 34.5611 23.3761 33.566C23.6924 32.5669 23.6901 31.3848 23.2646 30.4184C22.6864 29.4303 21.782 28.6545 20.6926 28.3079C18.7952 28.0823 17.6762 28.5198 16.4522 29.9551Z" fill="black"/>
</svg>
