<svg width="59" height="41" viewBox="0 0 59 41" fill="none" xmlns="http://www.w3.org/2000/svg">
<path d="M43.6917 7.64673C42.5282 7.64673 41.3647 7.64673 40.166 7.64673C40.2435 8.42346 40.3216 9.13452 40.4704 9.89081C40.5064 10.077 40.5422 10.2633 40.578 10.4496C40.5968 10.5466 40.6156 10.6437 40.635 10.7437C42.9866 20.9775 42.9866 20.9775 40.9682 30.8291C39.6847 32.5786 38.1348 33.2912 36.0337 33.6153C35.2376 33.7174 34.4355 33.7061 33.6344 33.7052C33.4306 33.7063 33.2269 33.7076 33.0231 33.7091C32.4769 33.7125 31.9307 33.7137 31.3845 33.7145C30.8111 33.7157 30.2377 33.719 29.6643 33.7221C28.5816 33.7276 27.4989 33.7312 26.4161 33.7341C25.1822 33.7375 23.9482 33.7431 22.7143 33.7488C20.1788 33.7605 17.6434 33.7695 15.1079 33.7768C15.0923 33.6623 15.0767 33.5477 15.0607 33.4297C14.982 33.0194 14.982 33.0194 14.7301 32.5145C15.9352 32.5145 17.1403 32.5145 18.3818 32.5145C18.3934 31.6949 18.4035 30.8756 18.4095 30.056C18.412 29.7777 18.4154 29.4994 18.4198 29.2212C18.426 28.8191 18.4288 28.4171 18.431 28.015C18.4336 27.8924 18.4362 27.7698 18.4389 27.6435C18.4394 26.1962 17.9049 24.9028 16.9224 23.8405C16.1054 23.0831 15.0453 22.5256 13.9206 22.527C13.7543 22.5267 13.7543 22.5267 13.5846 22.5264C13.4639 22.5269 13.3433 22.5274 13.219 22.5278C13.0273 22.5278 13.0273 22.5278 12.8317 22.5278C12.4093 22.5279 11.9869 22.5288 11.5644 22.5298C11.2716 22.5301 10.9787 22.5302 10.6858 22.5304C9.91487 22.5308 9.14397 22.5321 8.37307 22.5335C7.58643 22.5348 6.79979 22.5354 6.01314 22.536C4.46964 22.5373 2.92614 22.5395 1.38263 22.5422C1.38329 22.6182 1.38395 22.6943 1.38463 22.7727C1.39051 23.5653 1.38937 24.3576 1.38417 25.1502C1.38315 25.4459 1.38391 25.7416 1.38651 26.0372C1.38993 26.4626 1.38691 26.8875 1.38263 27.3128C1.3863 27.5109 1.3863 27.5109 1.39004 27.713C1.38282 28.0785 1.36809 28.3792 1.25671 28.7275C1.01126 28.959 0.786617 29.0929 0.480659 29.2326C0.249355 29.3587 0.249355 29.3587 0.0919533 29.7453C0.123436 30.1161 0.123436 30.1161 0.320187 30.4238C0.627113 30.621 0.627113 30.621 0.981266 30.5959C1.41437 30.4868 1.69449 30.3284 2.06733 30.0845C3.95195 28.9368 6.132 28.5777 8.30036 28.9356C10.2866 29.4556 11.8804 30.6222 12.9594 32.3804C13.6005 33.5796 13.902 34.7281 14.0036 36.076C14.0798 36.9648 14.0798 36.9648 14.4783 37.3113C14.8885 37.3892 15.296 37.3782 15.7124 37.3738C15.8405 37.3744 15.9687 37.375 16.1008 37.3756C16.5324 37.377 16.9638 37.3748 17.3954 37.3727C17.7039 37.3729 18.0125 37.3734 18.321 37.3741C19.0733 37.3752 19.8255 37.374 20.5778 37.3716C21.4532 37.369 22.3287 37.369 23.2041 37.3692C24.7657 37.3693 26.3273 37.367 27.8889 37.3633C29.4053 37.3597 30.9218 37.358 32.4382 37.3581C32.5316 37.3581 32.625 37.3581 32.7213 37.3582C32.8145 37.3582 32.9078 37.3582 33.0039 37.3582C34.7287 37.3584 36.4536 37.3569 38.1784 37.3546C38.7892 37.3539 39.3999 37.3536 40.0106 37.3535C40.832 37.3533 41.6533 37.3517 42.4747 37.3491C42.7769 37.3484 43.0792 37.3481 43.3814 37.3482C43.7924 37.3484 44.2033 37.3469 44.6143 37.3451C44.7958 37.3457 44.7958 37.3457 44.981 37.3463C45.0905 37.3455 45.2 37.3447 45.3128 37.3438C45.4077 37.3436 45.5027 37.3435 45.6005 37.3433C45.8324 37.3113 45.8324 37.3113 46.0842 37.0589C46.1375 36.8245 46.1375 36.8245 46.1693 36.5396C46.1823 36.4349 46.1952 36.3302 46.2086 36.2223C46.2221 36.1104 46.2356 35.9986 46.2495 35.8833C46.5305 33.8185 47.3019 31.9384 48.8544 30.4948C50.3132 29.4002 51.8097 28.8055 53.6315 28.8222C53.7376 28.8212 53.8437 28.8203 53.953 28.8193C54.5887 28.8212 55.1649 28.8896 55.7809 29.0483C56.2684 29.1609 56.7208 29.2148 57.1652 28.9642C57.2911 28.7275 57.2911 28.7275 57.299 28.3488C57.1652 27.9701 57.1652 27.9701 56.8445 27.7704C56.351 27.5673 55.8873 27.4636 55.3629 27.3784C55.2675 27.3625 55.1721 27.3466 55.0738 27.3303C53.4488 27.0715 51.911 27.2662 50.3655 27.8439C50.4278 27.6955 50.4901 27.5471 50.5544 27.3942C50.911 26.3266 50.8944 25.1048 50.4914 24.0569C50.3817 24.0522 50.2719 24.0475 50.1589 24.0426C48.6952 23.9617 47.0888 23.8351 45.9583 22.7946C44.8992 21.3697 44.6044 19.4361 44.1954 17.7453C44.1512 17.5638 44.1512 17.5638 44.1062 17.3785C43.8986 16.5253 43.6932 15.6717 43.4898 14.8175C43.42 14.5244 43.35 14.2314 43.2798 13.9385C43.1801 13.5214 43.0818 13.1041 42.9839 12.6867C42.9537 12.5608 42.9234 12.4349 42.8922 12.3053C42.6511 11.2653 42.5396 10.3845 43.0621 9.41398C43.2948 9.11639 43.5339 8.83139 43.7886 8.55254C43.8398 8.46191 43.8909 8.37127 43.9436 8.27789C43.8605 8.06961 43.7774 7.86132 43.6917 7.64673Z" fill="black"/>
<path d="M32.9966 0.164302C32.7437 0.163753 32.4908 0.163098 32.2379 0.162347C31.5541 0.160664 30.8704 0.160583 30.1867 0.160903C29.6144 0.161039 29.0421 0.160421 28.4698 0.159817C27.1188 0.158419 25.7678 0.15836 24.4168 0.159125C23.0265 0.159887 21.6363 0.158333 20.246 0.155644C19.0492 0.153416 17.8524 0.152664 16.6556 0.153074C15.9422 0.153302 15.2288 0.152978 14.5154 0.151217C13.8441 0.149621 13.1728 0.149882 12.5015 0.151521C12.2564 0.151818 12.0112 0.151481 11.7661 0.150432C8.82899 0.138788 6.26059 0.757708 4.04275 2.82224C1.76704 5.20424 1.43004 7.87708 1.45942 11.0111C1.46037 11.3084 1.46108 11.6057 1.46159 11.9029C1.46349 12.6793 1.46843 13.4556 1.47403 14.2319C1.48013 15.1667 1.4824 16.1014 1.48534 17.0362C1.49019 18.4507 1.49986 19.8652 1.50861 21.2798C4.79134 21.2798 8.07408 21.2798 11.4563 21.2798C11.4625 20.2545 11.4686 19.2292 11.475 18.1728C11.4794 17.5244 11.484 16.8761 11.4888 16.2278C11.4964 15.198 11.5037 14.1682 11.5094 13.1384C11.514 12.3085 11.5199 11.4786 11.5266 10.6486C11.5289 10.3315 11.5308 10.0144 11.5323 9.69724C11.5344 9.25412 11.538 8.81104 11.5421 8.36793C11.5423 8.23591 11.5426 8.10389 11.5429 7.96787C11.5443 7.84733 11.5457 7.72678 11.5471 7.60259C11.5478 7.49775 11.5485 7.39291 11.5493 7.28489C11.5664 6.97786 11.5664 6.97786 11.834 6.63682C12.0739 6.57939 12.0739 6.57939 12.3547 6.58825C12.4644 6.58706 12.5741 6.58587 12.6872 6.58464C12.8085 6.58525 12.9297 6.58586 13.0547 6.58649C13.247 6.58523 13.247 6.58523 13.4433 6.58395C13.8758 6.58158 14.3083 6.58193 14.7408 6.58225C15.0498 6.58111 15.3587 6.5798 15.6677 6.57835C16.3342 6.57558 17.0008 6.57397 17.6673 6.57341C18.6311 6.57259 19.5948 6.5697 20.5585 6.56629C22.122 6.56083 23.6855 6.55705 25.2489 6.55432C26.768 6.55167 28.287 6.54823 29.806 6.54372C29.9464 6.54331 29.9464 6.54331 30.0896 6.54288C30.5591 6.54148 31.0286 6.54007 31.4981 6.53865C35.3948 6.52688 39.2914 6.51787 43.1881 6.51059C43.0295 6.18634 42.8702 5.86244 42.7105 5.5387C42.6659 5.44746 42.6214 5.35622 42.5755 5.26221C42.2244 4.55241 41.835 3.94091 41.2993 3.35478C41.1956 3.24071 41.0919 3.12665 40.985 3.00912C38.7121 0.620681 36.1474 0.159767 32.9966 0.164302ZM7.00679 6.67054C7.29573 7.04628 7.22614 7.50407 7.22189 7.95958C7.22235 8.06881 7.22281 8.17804 7.22328 8.29058C7.2243 8.65207 7.22259 9.01349 7.22075 9.37498C7.22069 9.62572 7.22075 9.87646 7.22094 10.1272C7.22093 10.6528 7.21962 11.1784 7.21734 11.704C7.21448 12.3788 7.21442 13.0536 7.21527 13.7284C7.21569 14.2461 7.21486 14.7639 7.21362 15.2816C7.21313 15.5305 7.21299 15.7793 7.21318 16.0282C7.21323 16.3755 7.21164 16.7227 7.20959 17.07C7.20991 17.1736 7.21022 17.2771 7.21054 17.3838C7.22743 17.9393 7.22743 17.9393 6.92317 18.3764C6.60837 18.4185 6.60837 18.4185 6.29357 18.3764C5.9682 18.0503 6.01041 17.8284 6.0062 17.3838C6.00651 17.2802 6.00682 17.1767 6.00714 17.07C6.0065 16.961 6.00586 16.852 6.00519 16.7397C6.00344 16.3781 6.00357 16.0166 6.00386 15.655C6.00336 15.4044 6.00282 15.1538 6.00222 14.9032C6.00128 14.3774 6.00132 13.8516 6.00198 13.3258C6.00271 12.6511 6.00058 11.9764 5.99765 11.3018C5.9958 10.784 5.99569 10.2663 5.99609 9.74857C5.99602 9.49979 5.99535 9.25101 5.99409 9.00223C5.99254 8.65465 5.99339 8.30716 5.99485 7.95958C5.99389 7.85629 5.99292 7.75299 5.99193 7.64657C5.98428 7.12356 5.98428 7.12356 6.20994 6.67054C6.51142 6.44042 6.70532 6.44042 7.00679 6.67054Z" fill="black"/>
<path d="M23.1667 7.77295C19.7178 7.77295 16.2689 7.77295 12.7154 7.77295C12.7154 12.2302 12.7154 16.6875 12.7154 21.2798C13.3803 21.3631 14.0451 21.4464 14.7301 21.5323C15.7554 21.8626 16.5722 22.204 17.3744 22.9208C17.4489 22.981 17.5234 23.0412 17.6002 23.1033C18.8695 24.2212 19.4098 26.0015 19.539 27.6434C19.5821 28.4409 19.592 29.2388 19.6016 30.0372C19.6058 30.2785 19.6102 30.5198 19.6147 30.761C19.6255 31.3455 19.6332 31.9299 19.641 32.5145C20.8045 32.5145 21.968 32.5145 23.1667 32.5145C23.1667 24.3498 23.1667 16.1851 23.1667 7.77295Z" fill="black"/>
<path d="M49.6888 31.197C48.5147 32.173 47.7777 33.3831 47.6318 34.9263C47.6132 36.6654 47.9954 37.8972 49.1807 39.161C50.2151 40.168 51.3909 40.6176 52.8255 40.6723C54.2022 40.6444 55.4973 40.1439 56.5278 39.2128C57.6036 38.0463 58.0515 36.6107 58.0339 35.053C57.9355 33.7733 57.4947 32.7524 56.6144 31.8282C56.5392 31.7478 56.4641 31.6674 56.3866 31.5846C54.5846 29.8344 51.6953 29.7384 49.6888 31.197ZM55.1663 33.7059C55.6457 34.4343 55.8032 35.1008 55.6734 35.9603C55.4696 36.8382 55.083 37.3604 54.3395 37.8637C53.643 38.2925 53.0166 38.3779 52.2072 38.266C51.2779 37.9719 50.6619 37.4792 50.1925 36.625C49.8659 35.8421 49.887 35.1247 50.1615 34.3307C50.5062 33.5628 51.002 33.1453 51.735 32.7355C53.0397 32.3213 54.2899 32.6098 55.1663 33.7059Z" fill="black"/>
<path d="M3.30552 31.3147C2.28748 32.1487 1.58151 33.2727 1.41672 34.5967C1.29213 36.3296 1.68226 37.636 2.74183 39.0114C3.60664 39.9735 4.91963 40.5639 6.20167 40.6558C7.67166 40.6857 8.90062 40.327 10.0265 39.362C11.2003 38.2193 11.7454 37.076 11.7972 35.433C11.7618 33.901 11.2847 32.757 10.2178 31.6776C8.24177 29.8228 5.49824 29.6799 3.30552 31.3147ZM8.90895 33.6973C9.38859 34.426 9.54418 35.0914 9.41706 35.9512C9.21442 36.8127 8.82398 37.3741 8.09047 37.8787C7.38154 38.2751 6.74528 38.381 5.94983 38.2574C5.02683 37.9631 4.39154 37.4757 3.93511 36.6164C3.61271 35.8422 3.63554 35.1239 3.89527 34.3354C4.24957 33.505 4.85992 33.0966 5.61929 32.6559C6.89185 32.3521 8.07259 32.6513 8.90895 33.6973Z" fill="black"/>
<path d="M26.9443 16.9879C26.0717 16.9879 25.1991 16.9879 24.3 16.9879C24.3 22.1117 24.3 27.2355 24.3 32.5145C25.1726 32.5145 26.0453 32.5145 26.9443 32.5145C26.9443 27.3907 26.9443 22.267 26.9443 16.9879Z" fill="black"/>
<path d="M30.2655 26.6683C29.5435 26.6813 28.8215 26.6943 28.0776 26.7077C28.0776 28.6239 28.0776 30.5402 28.0776 32.5144C30.3215 32.5144 32.5654 32.5144 34.8773 32.5144C34.8773 28.3564 34.8773 28.3564 34.0703 27.5078C32.9175 26.5362 31.6867 26.632 30.2655 26.6683Z" fill="black"/>
<path d="M44.4472 9.54016C44.3641 9.54016 44.281 9.54016 44.1954 9.54016C43.4384 10.7819 43.8004 11.8242 44.1229 13.1868C44.1647 13.3595 44.2066 13.5322 44.2485 13.7048C44.292 13.8862 44.3355 14.0676 44.3789 14.2489C44.4698 14.6274 44.5613 15.0057 44.6533 15.3839C44.77 15.8642 44.8848 16.345 44.9991 16.8259C45.0883 17.2002 45.1787 17.5742 45.2694 17.9481C45.3122 18.125 45.3545 18.3021 45.3965 18.4792C46.0599 21.2728 46.0599 21.2728 46.9656 22.2896C47.2956 22.4573 47.2956 22.4573 47.6503 22.5737C47.8253 22.6332 47.8253 22.6332 48.0039 22.694C48.5173 22.8429 48.9882 22.9378 49.5233 22.9287C49.7532 22.9248 49.7532 22.9248 49.9877 22.9208C49.8998 22.3184 49.6736 21.7963 49.4378 21.2403C49.3723 21.084 49.3723 21.084 49.3055 20.9245C49.1609 20.5798 49.0155 20.2355 48.8701 19.8912C48.7688 19.6502 48.6675 19.4091 48.5663 19.168C48.353 18.6606 48.1395 18.1532 47.9256 17.646C47.6503 16.9928 47.3759 16.3391 47.1019 15.6852C46.888 15.1747 46.6738 14.6644 46.4595 14.154C46.3573 13.9104 46.2551 13.6668 46.153 13.4232C45.6059 12.1182 45.0524 10.8194 44.4472 9.54016Z" fill="black"/>
<path d="M5.65856 33.934C5.26606 34.2634 4.97811 34.507 4.89221 35.0262C4.90233 36.1227 4.90233 36.1227 5.32015 36.6164C5.73527 36.9805 6.06477 37.1084 6.61869 37.1608C7.25549 37.1067 7.61915 36.8583 8.04513 36.3886C8.36259 35.8746 8.30703 35.3048 8.2163 34.7229C8.01356 34.314 7.7205 34.0673 7.35847 33.7919C6.70999 33.6062 6.24422 33.6238 5.65856 33.934Z" fill="black"/>
<path d="M51.9161 33.9426C51.5098 34.2836 51.2375 34.524 51.1409 35.058C51.129 36.1259 51.129 36.1259 51.4832 36.5698C51.9437 36.979 52.1438 37.1124 52.7582 37.1694C53.3476 37.1185 53.744 36.9389 54.1984 36.5619C54.5485 36.1186 54.5228 35.5881 54.5181 35.0486C54.4343 34.4487 54.0882 34.1597 53.616 33.8006C52.9675 33.6149 52.5018 33.6324 51.9161 33.9426Z" fill="black"/>
<path d="M35.7588 17.2403C35.507 17.4928 35.507 17.4928 35.4833 17.9188C35.6329 18.3764 35.6329 18.3764 35.8248 18.5061C35.9102 18.5411 35.9955 18.5761 36.0834 18.6121C36.1857 18.6541 36.2879 18.6961 36.3932 18.7394C37.0942 19.0062 37.7983 19.2631 38.5056 19.5127C38.7757 19.6082 39.0455 19.7045 39.3153 19.801C39.4872 19.862 39.6591 19.923 39.831 19.9839C39.986 20.0389 40.141 20.0938 40.3007 20.1505C40.6697 20.2699 40.6697 20.2699 40.9215 20.2699C40.88 19.77 40.8384 19.2702 40.7956 18.7551C39.8047 18.3197 38.7999 17.937 37.7814 17.5717C37.6546 17.525 37.5278 17.4783 37.3972 17.4302C37.2761 17.3874 37.155 17.3446 37.0303 17.3005C36.8677 17.2421 36.8677 17.2421 36.7017 17.1825C36.3392 17.1034 36.1116 17.1304 35.7588 17.2403Z" fill="black"/>
</svg>
