<svg width="91" height="41" viewBox="0 0 91 41" fill="none" xmlns="http://www.w3.org/2000/svg">
<path d="M75.4847 34.5727C74.526 34.5727 73.7191 33.9083 73.4821 33.0058C73.4357 32.8305 73.4112 32.6461 73.4112 32.4558C73.4112 31.2868 74.3396 30.339 75.4847 30.339C76.6299 30.339 77.5581 31.2868 77.5581 32.4558C77.5581 32.6461 77.5336 32.8305 77.4872 33.0058C77.2502 33.9083 76.4434 34.5727 75.4847 34.5727Z" fill="black"/>
<path d="M15.0956 30.339C16.2408 30.339 17.1691 31.2868 17.1691 32.4558C17.1691 32.6461 17.1446 32.8305 17.0982 33.0058C16.8612 33.9083 16.0542 34.5727 15.0956 34.5727C14.1369 34.5727 13.3301 33.9083 13.0931 33.0058C13.0467 32.8305 13.0222 32.6461 13.0222 32.4558C13.0222 31.2868 13.9506 30.339 15.0956 30.339Z" fill="black"/>
<path d="M91 32.6026C91 33.7272 90.1071 34.6388 89.0056 34.6388H84.076C83.1352 38.2202 79.933 40.857 76.1282 40.857C72.3235 40.857 69.1213 38.2202 68.1805 34.6388H23.687C22.7461 38.2202 19.544 40.857 15.7392 40.857C11.9344 40.857 8.73226 38.2202 7.79144 34.6388H2.80481C1.73439 34.6388 0.866135 33.7524 0.866135 32.6595V2.74854C0.866135 1.65571 1.73309 0.769287 2.80351 0.769287H53.008C58.4379 0.769287 63.637 3.01446 67.4185 6.99149L73.6168 13.5127C74.0846 14.0049 74.6742 14.3594 75.3222 14.5394L84.2108 17.0042C85.4795 17.3561 86.4734 18.3616 86.8324 19.6515L88.7166 26.436L89.9905 27.1743C90.6151 27.5355 91 28.2115 91 28.9445V32.6026ZM51.913 24.7161H55.2176C55.8259 24.7161 56.3191 24.2125 56.3191 23.5915C56.3191 22.9705 55.8259 22.4669 55.2176 22.4669H51.913C51.3047 22.4669 50.8115 22.9705 50.8115 23.5915C50.8115 24.2125 51.3047 24.7161 51.913 24.7161ZM11.2321 34.6388C12.0342 36.3587 13.7526 37.5494 15.7392 37.5494C17.7258 37.5494 19.4442 36.3587 20.2463 34.6388C20.5561 33.9773 20.7284 33.2364 20.7284 32.4558C20.7284 29.647 18.4904 27.3621 15.7392 27.3621C12.988 27.3621 10.75 29.647 10.75 32.4558C10.75 33.2364 10.9223 33.9773 11.2321 34.6388ZM5.81973 26.2045L5.00149 21.0226C4.96442 20.7875 4.76563 20.6147 4.53237 20.6147H3.61903C3.35661 20.6147 3.14394 20.8319 3.14394 21.0999V26.2818C3.14394 26.5497 3.35674 26.7669 3.61903 26.7669H5.35061C5.64323 26.7668 5.86625 26.4994 5.81973 26.2045ZM25.7891 4.07686H8.66021C8.02509 4.07686 7.51022 4.60249 7.51022 5.25091V17.7208C7.51022 18.3693 8.02509 18.8949 8.66021 18.8949H25.7891V4.07686ZM27.3557 23.5915C27.3557 24.2125 27.8489 24.7161 28.4572 24.7161H31.7617C32.37 24.7161 32.8633 24.2125 32.8633 23.5915C32.8633 22.9705 32.37 22.4669 31.7617 22.4669H28.4572C27.8489 22.4669 27.3557 22.9705 27.3557 23.5915ZM46.2561 17.5344L44.2931 5.0645C44.2036 4.49533 43.7224 4.07672 43.1578 4.07672H27.9921V18.8946H45.1207C45.8286 18.8948 46.3684 18.2481 46.2561 17.5344ZM70.5797 15.067L65.0935 9.29488C61.9406 5.97884 57.5355 4.07686 53.0082 4.07686H48.9819C48.4405 4.07686 48.0297 4.57497 48.1218 5.11966L49.1111 10.9629C49.4165 12.7666 50.2609 14.4297 51.5286 15.7239L52.09 16.2971C53.7191 17.9603 55.9285 18.8948 58.2323 18.8948H64.444C66.6628 18.8948 68.7976 18.028 70.4105 16.4723L70.5526 16.3351C70.9064 15.994 70.9184 15.4234 70.5797 15.067ZM76.1282 27.3621C73.377 27.3621 71.139 29.647 71.139 32.4558C71.139 33.2364 71.3114 33.9773 71.6211 34.6388C72.4232 36.3587 74.1416 37.5494 76.1282 37.5494C78.1148 37.5494 79.8332 36.3587 80.6354 34.6388C80.9451 33.9773 81.1175 33.2364 81.1175 32.4558C81.1175 29.647 78.8794 27.3621 76.1282 27.3621ZM85.7977 24.6244L84.8971 21.1301C84.8188 20.8264 84.5498 20.6147 84.2421 20.6147H81.9146C81.4094 20.6147 81.0821 21.1589 81.3105 21.6189L82.9219 24.8619C83.0207 25.061 83.2077 25.199 83.4239 25.2326L85.0409 25.4838C85.5225 25.5587 85.9216 25.1053 85.7977 24.6244Z" fill="black"/>
</svg>
