<svg width="68" height="68" viewBox="0 0 68 68" fill="none" xmlns="http://www.w3.org/2000/svg">
<g filter="url(#filter0_d_11_57)">
<path fill-rule="evenodd" clip-rule="evenodd" d="M63.2307 29.942C63.2307 46.298 49.9713 59.5573 33.6153 59.5573C17.2592 59.5573 4 46.298 4 29.942C4 13.5859 17.2592 0.32666 33.6153 0.32666C49.9713 0.32666 63.2307 13.5859 63.2307 29.942ZM18.8225 21.0574C18.8225 19.4286 20.1404 18.0959 21.7692 18.0959H45.4615C47.0903 18.0959 48.423 19.4286 48.423 21.0574V38.8266C48.423 40.4554 47.0903 41.7881 45.4615 41.7881H21.7692C20.1404 41.7881 18.8077 40.4554 18.8077 38.8266L18.8225 21.0574ZM33.6153 31.4228L21.7692 24.0188V38.8266H45.4615V24.0188L33.6153 31.4228ZM33.6153 28.4612L21.7692 21.0574H45.4615L33.6153 28.4612Z" fill="white"/>
</g>
<defs>
<filter id="filter0_d_11_57" x="0" y="0.32666" width="67.2307" height="67.2307" filterUnits="userSpaceOnUse" color-interpolation-filters="sRGB">
<feFlood flood-opacity="0" result="BackgroundImageFix"/>
<feColorMatrix in="SourceAlpha" type="matrix" values="0 0 0 0 0 0 0 0 0 0 0 0 0 0 0 0 0 0 127 0" result="hardAlpha"/>
<feOffset dy="4"/>
<feGaussianBlur stdDeviation="2"/>
<feComposite in2="hardAlpha" operator="out"/>
<feColorMatrix type="matrix" values="0 0 0 0 0 0 0 0 0 0 0 0 0 0 0 0 0 0 0.25 0"/>
<feBlend mode="normal" in2="BackgroundImageFix" result="effect1_dropShadow_11_57"/>
<feBlend mode="normal" in="SourceGraphic" in2="effect1_dropShadow_11_57" result="shape"/>
</filter>
</defs>
</svg>
