<svg width="68" height="68" viewBox="0 0 68 68" fill="none" xmlns="http://www.w3.org/2000/svg">
<g filter="url(#filter0_d_11_36)">
<path d="M63.2313 30.3281C63.2313 36.1855 61.4943 41.9114 58.2401 46.7816C54.9859 51.6519 50.3606 55.4478 44.949 57.6893C39.5375 59.9309 33.5828 60.5174 27.8379 59.3746C22.093 58.2319 16.816 55.4113 12.6742 51.2695C8.53241 47.1277 5.71179 41.8507 4.56907 36.1058C3.42634 30.3609 4.01283 24.4062 6.25437 18.9947C8.4959 13.5831 12.2918 8.9578 17.1621 5.7036C22.0323 2.44939 27.7582 0.712463 33.6156 0.712463C37.5048 0.712463 41.3559 1.47849 44.949 2.96682C48.5422 4.45514 51.807 6.63661 54.557 9.38668C57.3071 12.1367 59.4886 15.4015 60.9769 18.9947C62.4652 22.5878 63.2313 26.4389 63.2313 30.3281ZM47.4078 28.1397C47.4068 27.6688 47.2193 27.2174 46.8863 26.8844C46.5533 26.5514 46.1019 26.3639 45.631 26.3629H43.0124V21.6458C43.0124 19.1452 42.0191 16.747 40.2509 14.9788C38.4827 13.2105 36.0845 12.2172 33.5838 12.2172C31.0832 12.2172 28.685 13.2105 26.9168 14.9788C25.1486 16.747 24.1552 19.1452 24.1552 21.6458V26.3629H21.5367C21.0658 26.3639 20.6144 26.5514 20.2814 26.8844C19.9484 27.2174 19.7608 27.6688 19.7598 28.1397V47.2476C19.7608 47.7185 19.9484 48.1699 20.2814 48.5029C20.6144 48.8359 21.0658 49.0234 21.5367 49.0244H45.6272C46.0985 49.0234 46.5503 48.836 46.8839 48.5031C47.2175 48.1702 47.4059 47.7188 47.4078 47.2476V28.1397ZM40.0497 21.6458V26.3629H27.1142V21.6458C27.1548 19.9569 27.8543 18.3508 29.0631 17.1706C30.272 15.9905 31.8944 15.3298 33.5838 15.3298C35.2732 15.3298 36.8957 15.9905 38.1046 17.1706C39.3134 18.3508 40.0091 19.9569 40.0497 21.6458ZM34.764 37.9667V42.8634C34.7731 43.0245 34.7492 43.1857 34.6938 43.3372C34.6384 43.4887 34.5526 43.6273 34.4418 43.7446C34.331 43.8618 34.1974 43.9552 34.0492 44.019C33.9011 44.0829 33.7414 44.1158 33.5801 44.1158C33.4188 44.1158 33.2591 44.0829 33.111 44.019C32.9628 43.9552 32.8292 43.8618 32.7184 43.7446C32.6075 43.6273 32.5218 43.4887 32.4664 43.3372C32.411 43.1857 32.3871 43.0245 32.3961 42.8634V37.9667C31.7742 37.6948 31.2649 37.2171 30.9537 36.6138C30.6426 36.0106 30.5485 35.3187 30.6874 34.6543C30.8263 33.9899 31.1897 33.3936 31.7165 32.9655C32.2433 32.5375 32.9013 32.3038 33.5801 32.3038C34.2589 32.3038 34.9169 32.5375 35.4437 32.9655C35.9705 33.3936 36.3339 33.9899 36.4728 34.6543C36.6117 35.3187 36.5176 36.0106 36.2065 36.6138C35.8953 37.2171 35.386 37.6948 34.764 37.9667Z" fill="white"/>
</g>
<defs>
<filter id="filter0_d_11_36" x="0" y="0.712463" width="67.2313" height="67.2312" filterUnits="userSpaceOnUse" color-interpolation-filters="sRGB">
<feFlood flood-opacity="0" result="BackgroundImageFix"/>
<feColorMatrix in="SourceAlpha" type="matrix" values="0 0 0 0 0 0 0 0 0 0 0 0 0 0 0 0 0 0 127 0" result="hardAlpha"/>
<feOffset dy="4"/>
<feGaussianBlur stdDeviation="2"/>
<feComposite in2="hardAlpha" operator="out"/>
<feColorMatrix type="matrix" values="0 0 0 0 0 0 0 0 0 0 0 0 0 0 0 0 0 0 0.25 0"/>
<feBlend mode="normal" in2="BackgroundImageFix" result="effect1_dropShadow_11_36"/>
<feBlend mode="normal" in="SourceGraphic" in2="effect1_dropShadow_11_36" result="shape"/>
</filter>
</defs>
</svg>
