<svg width="54" height="33" viewBox="0 0 54 33" fill="none" xmlns="http://www.w3.org/2000/svg">
<path d="M53.7545 16.0394C53.7545 24.8417 46.6449 32.036 37.7579 32.036C28.9555 32.036 21.7613 24.8417 21.7613 16.0394C21.7613 7.23697 28.8709 0.0427246 37.6733 0.0427246C46.6449 0.0427246 53.7545 7.23697 53.7545 16.0394Z" fill="#FFB600"/>
<path d="M37.7579 0.0427246C46.5603 0.0427246 53.7545 7.23697 53.7545 16.0394C53.7545 24.8417 46.6449 32.036 37.7579 32.036C28.9555 32.036 21.7613 24.8417 21.7613 16.0394" fill="#F7981D"/>
<path d="M37.7579 0.0427246C46.5602 0.0427246 53.7545 7.23697 53.7545 16.0394C53.7545 24.8417 46.6449 32.036 37.7579 32.036" fill="#FF8500"/>
<path d="M16.2598 0.0427246C7.54205 0.127363 0.432434 7.23697 0.432434 16.0394C0.432434 24.8417 7.54205 32.036 16.4291 32.036C20.5763 32.036 24.3004 30.4279 27.1781 27.8887C27.7706 27.3809 28.2784 26.7884 28.7862 26.1959H25.4854C25.0622 25.6881 24.639 25.0956 24.3004 24.5878H29.9712C30.3097 24.08 30.6483 23.4875 30.9022 22.895H23.3694C23.1155 22.3872 22.8616 21.7947 22.6923 21.2023H31.4947C32.0025 19.5942 32.341 17.9014 32.341 16.124C32.341 14.9391 32.1718 13.8388 32.0025 12.7385H22.1845C22.2691 12.146 22.4384 11.6382 22.6077 11.0457H31.41C31.2407 10.4532 30.9868 9.86076 30.7329 9.35293H23.2848C23.5387 8.76046 23.8772 8.25263 24.2158 7.66017H29.8865C29.548 7.0677 29.1248 6.47523 28.617 5.9674H25.4854C25.9932 5.37493 26.501 4.8671 27.0935 4.35927C24.3004 1.73549 20.4917 0.212001 16.3444 0.212001C16.3444 0.0427244 16.3444 0.0427246 16.2598 0.0427246Z" fill="#FF5050"/>
<path d="M0.432434 16.0393C0.432434 24.8416 7.54205 32.0359 16.4291 32.0359C20.5763 32.0359 24.3004 30.4278 27.1781 27.8886C27.7706 27.3808 28.2784 26.7883 28.7862 26.1959H25.4854C25.0622 25.688 24.639 25.0956 24.3004 24.5877H29.9712C30.3097 24.0799 30.6483 23.4874 30.9022 22.895H23.3694C23.1155 22.3871 22.8616 21.7947 22.6923 21.2022H31.4947C32.0025 19.5941 32.341 17.9013 32.341 16.1239C32.341 14.939 32.1718 13.8387 32.0025 12.7384H22.1845C22.2691 12.1459 22.4384 11.6381 22.6077 11.0456H31.41C31.2407 10.4531 30.9868 9.86067 30.7329 9.35284H23.2848C23.5387 8.76038 23.8772 8.25255 24.2158 7.66008H29.8865C29.548 7.06761 29.1248 6.47514 28.617 5.96731H25.4854C25.9932 5.37485 26.501 4.86702 27.0935 4.35919C24.3004 1.7354 20.4917 0.211914 16.3444 0.211914H16.2598" fill="#E52836"/>
<path d="M16.429 32.0359C20.5763 32.0359 24.3004 30.4278 27.1781 27.8886C27.7706 27.3808 28.2784 26.7883 28.7862 26.1959H25.4853C25.0621 25.688 24.639 25.0956 24.3004 24.5877H29.9712C30.3097 24.0799 30.6483 23.4874 30.9022 22.895H23.3694C23.1155 22.3871 22.8615 21.7947 22.6923 21.2022H31.4946C32.0025 19.5941 32.341 17.9013 32.341 16.1239C32.341 14.939 32.1718 13.8387 32.0025 12.7384H22.1844C22.2691 12.1459 22.4384 11.6381 22.6076 11.0456H31.41C31.2407 10.4531 30.9868 9.86067 30.7329 9.35284H23.2847C23.5387 8.76038 23.8772 8.25255 24.2158 7.66008H29.8865C29.548 7.06761 29.1248 6.47514 28.6169 5.96731H25.4853C25.9932 5.37485 26.501 4.86702 27.0935 4.35919C24.3004 1.7354 20.4917 0.211914 16.3444 0.211914H16.2598" fill="#CB2026"/>
<path d="M22.0998 20.102L22.3537 18.6631C22.2691 18.6631 22.0998 18.7478 21.9306 18.7478C21.3381 18.7478 21.2535 18.4092 21.3381 18.2399L21.8459 15.2776H22.7769L23.0309 13.6695H22.1845L22.3537 12.6538H20.661C20.661 12.6538 19.6453 18.2399 19.6453 18.917C19.6453 19.9327 20.2378 20.3559 20.9995 20.3559C21.5074 20.3559 21.9306 20.1866 22.0998 20.102Z" fill="white"/>
<path d="M22.6923 17.3936C22.6923 19.7635 24.3004 20.356 25.6546 20.356C26.9242 20.356 27.432 20.1021 27.432 20.1021L27.7706 18.4939C27.7706 18.4939 26.8395 18.9171 25.9932 18.9171C24.1311 18.9171 24.4697 17.5629 24.4697 17.5629H27.9398C27.9398 17.5629 28.1937 16.4626 28.1937 16.0394C28.1937 14.9391 27.6013 13.5849 25.7392 13.5849C23.9618 13.4157 22.6923 15.2777 22.6923 17.3936ZM25.6546 14.9391C26.5856 14.9391 26.4163 16.0394 26.4163 16.1241H24.5543C24.5543 16.0394 24.7236 14.9391 25.6546 14.9391Z" fill="white"/>
<path d="M36.4037 20.102L36.7423 18.24C36.7423 18.24 35.8959 18.6631 35.3034 18.6631C34.1185 18.6631 33.6106 17.7321 33.6106 16.7165C33.6106 14.6852 34.6263 13.5849 35.8112 13.5849C36.6576 13.5849 37.3347 14.0927 37.3347 14.0927L37.5886 12.3153C37.5886 12.3153 36.573 11.8921 35.642 11.8921C33.6953 11.8921 31.7486 13.5849 31.7486 16.8011C31.7486 18.9171 32.7643 20.3559 34.7956 20.3559C35.4727 20.3559 36.4037 20.102 36.4037 20.102Z" fill="white"/>
<path d="M12.7896 13.4156C11.6047 13.4156 10.7583 13.7542 10.7583 13.7542L10.5044 15.1931C10.5044 15.1931 11.2661 14.8545 12.3664 14.8545C12.9589 14.8545 13.4667 14.9391 13.4667 15.447C13.4667 15.7855 13.3821 15.8702 13.3821 15.8702C13.3821 15.8702 12.8743 15.8702 12.6203 15.8702C11.1815 15.8702 9.57336 16.4626 9.57336 18.4093C9.57336 19.9328 10.589 20.2713 11.1815 20.2713C12.3664 20.2713 12.8743 19.5096 12.9589 19.5096L12.8743 20.1867H14.3977L15.0748 15.5316C15.0748 13.5003 13.3821 13.4156 12.7896 13.4156ZM13.1282 17.2244C13.1282 17.4783 12.9589 18.8325 11.9432 18.8325C11.4354 18.8325 11.2661 18.4093 11.2661 18.1554C11.2661 17.7322 11.52 17.1397 12.7896 17.1397C13.0435 17.2244 13.1282 17.2244 13.1282 17.2244Z" fill="white"/>
<path d="M16.6829 20.2713C17.1061 20.2713 19.2221 20.3559 19.2221 18.0707C19.2221 15.9547 17.1908 16.3779 17.1908 15.5315C17.1908 15.1083 17.5293 14.9391 18.1218 14.9391C18.3757 14.9391 19.3067 15.0237 19.3067 15.0237L19.5606 13.5002C19.5606 13.5002 18.9682 13.3309 17.9525 13.3309C16.6829 13.3309 15.4134 13.8388 15.4134 15.5315C15.4134 17.4782 17.5293 17.3089 17.5293 18.0707C17.5293 18.5785 16.9369 18.6631 16.5137 18.6631C15.7519 18.6631 14.9902 18.4092 14.9902 18.4092L14.7363 19.9327C14.8209 20.102 15.2441 20.2713 16.6829 20.2713Z" fill="white"/>
<path d="M50.4536 12.0614L50.1151 14.3466C50.1151 14.3466 49.438 13.5003 48.507 13.5003C46.9835 13.5003 45.6293 15.3623 45.6293 17.5629C45.6293 18.9171 46.3064 20.3559 47.7452 20.3559C48.7609 20.3559 49.3534 19.6788 49.3534 19.6788L49.2687 20.2713H50.9615L52.2311 12.146L50.4536 12.0614ZM49.6919 16.5472C49.6919 17.4782 49.2687 18.6632 48.3377 18.6632C47.7452 18.6632 47.4067 18.1554 47.4067 17.309C47.4067 15.9548 47.9991 15.1084 48.7609 15.1084C49.3534 15.1084 49.6919 15.5316 49.6919 16.5472Z" fill="white"/>
<path d="M3.56406 20.1867L4.57972 14.0927L4.74899 20.1867H5.93393L8.13452 14.0927L7.2035 20.1867H8.98091L10.3351 12.0614H7.54206L5.84929 17.0551L5.76465 12.0614H3.31014L1.95593 20.1867H3.56406Z" fill="white"/>
<path d="M29.8019 20.1865C30.3098 17.3934 30.3944 15.1082 31.5793 15.5314C31.7486 14.4311 32.0025 14.0079 32.1718 13.5847C32.1718 13.5847 32.0872 13.5847 31.8332 13.5847C31.0715 13.5847 30.479 14.6004 30.479 14.6004L30.6483 13.6694H29.0402L27.9399 20.2711H29.8019V20.1865Z" fill="white"/>
<path d="M40.2971 13.4156C39.1121 13.4156 38.2657 13.7542 38.2657 13.7542L38.0118 15.1931C38.0118 15.1931 38.7736 14.8545 39.8739 14.8545C40.4663 14.8545 40.9742 14.9391 40.9742 15.447C40.9742 15.7855 40.8895 15.8702 40.8895 15.8702C40.8895 15.8702 40.3817 15.8702 40.1278 15.8702C38.6889 15.8702 37.0808 16.4626 37.0808 18.4093C37.0808 19.9328 38.0965 20.2713 38.6889 20.2713C39.8739 20.2713 40.3817 19.5096 40.4663 19.5096L40.3817 20.1867H41.9052L42.5823 15.5316C42.6669 13.5003 40.8895 13.4156 40.2971 13.4156ZM40.7203 17.2244C40.7203 17.4783 40.551 18.8325 39.5353 18.8325C39.0275 18.8325 38.8582 18.4093 38.8582 18.1554C38.8582 17.7322 39.1121 17.1397 40.3817 17.1397C40.6356 17.2244 40.6356 17.2244 40.7203 17.2244Z" fill="white"/>
<path d="M44.0211 20.1865C44.5289 17.3934 44.6136 15.1082 45.7985 15.5314C45.9678 14.4311 46.2217 14.0079 46.391 13.5847C46.391 13.5847 46.3063 13.5847 46.0524 13.5847C45.2907 13.5847 44.6982 14.6004 44.6982 14.6004L44.8675 13.6694H43.2594L42.1591 20.2711H44.0211V20.1865Z" fill="white"/>
<path d="M19.4761 18.917C19.4761 19.9327 20.0685 20.3559 20.8303 20.3559C21.4228 20.3559 21.9306 20.1866 22.0999 20.102L22.3538 18.6631C22.2691 18.6631 22.0999 18.7478 21.9306 18.7478C21.3381 18.7478 21.2535 18.4092 21.3381 18.2399L21.8459 15.2776H22.777L23.0309 13.6695H22.1845L22.3538 12.6538" fill="#DCE5E5"/>
<path d="M23.5387 17.3936C23.5387 19.7635 24.3004 20.356 25.6547 20.356C26.9242 20.356 27.4321 20.1021 27.4321 20.1021L27.7706 18.4939C27.7706 18.4939 26.8396 18.9171 25.9932 18.9171C24.1312 18.9171 24.4697 17.5629 24.4697 17.5629H27.9399C27.9399 17.5629 28.1938 16.4626 28.1938 16.0394C28.1938 14.9391 27.6013 13.5849 25.7393 13.5849C23.9619 13.4157 23.5387 15.2777 23.5387 17.3936ZM25.6547 14.9391C26.5857 14.9391 26.755 16.0394 26.755 16.1241H24.5544C24.5544 16.0394 24.7236 14.9391 25.6547 14.9391Z" fill="#DCE5E5"/>
<path d="M36.4037 20.102L36.7422 18.24C36.7422 18.24 35.8959 18.6631 35.3034 18.6631C34.1185 18.6631 33.6106 17.7321 33.6106 16.7165C33.6106 14.6852 34.6263 13.5849 35.8112 13.5849C36.6576 13.5849 37.3347 14.0927 37.3347 14.0927L37.5886 12.3153C37.5886 12.3153 36.573 11.8921 35.6419 11.8921C33.6953 11.8921 32.595 13.5849 32.595 16.8011C32.595 18.9171 32.7642 20.3559 34.7956 20.3559C35.4727 20.3559 36.4037 20.102 36.4037 20.102Z" fill="#DCE5E5"/>
<path d="M10.5044 15.2775C10.5044 15.2775 11.2661 14.9389 12.3664 14.9389C12.9589 14.9389 13.4667 15.0236 13.4667 15.5314C13.4667 15.8699 13.3821 15.9546 13.3821 15.9546C13.3821 15.9546 12.8743 15.9546 12.6203 15.9546C11.1815 15.9546 9.57336 16.5471 9.57336 18.4937C9.57336 20.0172 10.589 20.3558 11.1815 20.3558C12.3664 20.3558 12.8743 19.594 12.9589 19.594L12.8743 20.2711H14.3977L15.0748 15.616C15.0748 13.6694 13.3821 13.5847 12.705 13.5847M13.9746 17.2242C13.9746 17.4781 12.9589 18.8323 11.9432 18.8323C11.4354 18.8323 11.2661 18.4091 11.2661 18.1552C11.2661 17.732 11.52 17.1395 12.7896 17.1395C13.0435 17.2242 13.9746 17.2242 13.9746 17.2242Z" fill="#DCE5E5"/>
<path d="M14.821 20.102C14.821 20.102 15.3288 20.2713 16.7677 20.2713C17.1909 20.2713 19.3068 20.3559 19.3068 18.0707C19.3068 15.9547 17.2755 16.3779 17.2755 15.5315C17.2755 15.1083 17.614 14.9391 18.2065 14.9391C18.4604 14.9391 19.3914 15.0237 19.3914 15.0237L19.6454 13.5002C19.6454 13.5002 19.0529 13.3309 18.0372 13.3309C16.7677 13.3309 16.3445 13.8388 16.3445 15.5315C16.3445 17.4782 17.614 17.3089 17.614 18.0707C17.614 18.5785 17.0216 18.6631 16.5984 18.6631" fill="#DCE5E5"/>
<path d="M50.1151 14.3466C50.1151 14.3466 49.438 13.5002 48.507 13.5002C46.9835 13.5002 46.4757 15.3622 46.4757 17.5628C46.4757 18.9171 46.3064 20.3559 47.7453 20.3559C48.7609 20.3559 49.3534 19.6788 49.3534 19.6788L49.2687 20.2713H50.9615L52.2311 12.146M50.0305 16.5472C50.0305 17.4782 49.2687 18.6631 48.3377 18.6631C47.7453 18.6631 47.4067 18.1553 47.4067 17.3089C47.4067 15.9547 47.9992 15.1083 48.7609 15.1083C49.3534 15.1083 50.0305 15.5315 50.0305 16.5472Z" fill="#DCE5E5"/>
<path d="M3.56406 20.1867L4.57972 14.0927L4.74899 20.1867H5.93393L8.13452 14.0927L7.2035 20.1867H8.98091L10.3351 12.0614H8.21916L5.84929 17.0551L5.76465 12.0614H4.83363L1.95593 20.1867H3.56406Z" fill="#DCE5E5"/>
<path d="M28.0245 20.1865H29.8019C30.3097 17.3934 30.3943 15.1082 31.5793 15.5314C31.7486 14.4311 32.0025 14.0079 32.1718 13.5847C32.1718 13.5847 32.0871 13.5847 31.8332 13.5847C31.0715 13.5847 30.479 14.6004 30.479 14.6004L30.6483 13.6694" fill="#DCE5E5"/>
<path d="M38.0118 15.2775C38.0118 15.2775 38.7736 14.9389 39.8739 14.9389C40.4663 14.9389 40.9742 15.0236 40.9742 15.5314C40.9742 15.8699 40.8895 15.9546 40.8895 15.9546C40.8895 15.9546 40.3817 15.9546 40.1278 15.9546C38.6889 15.9546 37.0808 16.5471 37.0808 18.4937C37.0808 20.0172 38.0965 20.3558 38.6889 20.3558C39.8739 20.3558 40.3817 19.594 40.4663 19.594L40.3817 20.2711H41.9052L42.5823 15.616C42.5823 13.6694 40.8895 13.5847 40.2124 13.5847M41.482 17.2242C41.482 17.4781 40.4663 18.8323 39.4507 18.8323C38.9429 18.8323 38.7736 18.4091 38.7736 18.1552C38.7736 17.732 39.0275 17.1395 40.2971 17.1395C40.6356 17.2242 41.482 17.2242 41.482 17.2242Z" fill="#DCE5E5"/>
<path d="M42.2437 20.1865H44.0211C44.5289 17.3934 44.6136 15.1082 45.7985 15.5314C45.9678 14.4311 46.2217 14.0079 46.391 13.5847C46.391 13.5847 46.3063 13.5847 46.0524 13.5847C45.2907 13.5847 44.6982 14.6004 44.6982 14.6004L44.8675 13.6694" fill="#DCE5E5"/>
</svg>
