<svg width="118" height="137" viewBox="0 0 118 137" fill="none" xmlns="http://www.w3.org/2000/svg">
<path d="M14.0735 0.215245C14.4736 0.21339 14.8737 0.211534 15.2859 0.209622C16.3918 0.20464 17.4976 0.20533 18.6034 0.206995C19.7979 0.20781 20.9924 0.203378 22.1869 0.199654C24.5255 0.193247 26.864 0.191857 29.2025 0.1924C31.1041 0.192799 33.0057 0.191638 34.9072 0.189377C35.4555 0.188737 36.0037 0.188098 36.5519 0.18746C36.8248 0.187142 37.0977 0.186824 37.3789 0.186497C42.5379 0.180741 47.6968 0.181057 52.8558 0.183136C57.5712 0.184834 62.2866 0.178493 67.0019 0.168404C71.8476 0.158117 76.6933 0.153507 81.5389 0.154914C84.2578 0.155597 86.9767 0.154013 89.6955 0.146417C92.0106 0.140003 94.3256 0.138933 96.6407 0.14468C97.8208 0.147462 99.0009 0.14784 100.181 0.141525C101.463 0.134741 102.745 0.13987 104.027 0.146077C104.581 0.140357 104.581 0.140357 105.146 0.134521C108.782 0.172158 111.964 1.41475 114.571 3.99103C117.264 7.22621 117.971 10.7848 117.963 14.8807C117.964 15.1379 117.964 15.3952 117.965 15.6602C117.967 16.5163 117.967 17.3723 117.967 18.2284C117.967 18.8446 117.969 19.4608 117.97 20.077C117.972 21.7468 117.973 23.4167 117.973 25.0866C117.974 26.1309 117.974 27.1752 117.975 28.2195C117.978 31.8657 117.979 35.5118 117.979 39.158C117.979 42.5521 117.982 45.9462 117.987 49.3402C117.991 52.2584 117.992 55.1765 117.992 58.0946C117.992 59.8356 117.993 61.5767 117.996 63.3177C117.999 64.9558 117.999 66.5938 117.997 68.2318C117.997 68.8312 117.997 69.4306 117.999 70.03C118.014 75.1509 117.905 79.8225 114.191 83.7867C111.24 86.5285 107.994 87.2551 104.091 87.2162C103.763 87.2154 103.435 87.2145 103.096 87.2136C102.053 87.2102 101.011 87.2026 99.9678 87.1948C99.2584 87.1918 98.549 87.189 97.8395 87.1865C96.1055 87.1798 94.3715 87.1696 92.6375 87.1567C92.7411 87.4634 92.8446 87.7701 92.9513 88.086C93.0891 88.4962 93.2269 88.9064 93.3646 89.3166C93.4666 89.6183 93.4666 89.6184 93.5707 89.9262C96.5818 98.9097 95.5497 108.681 91.5225 117.162C89.7185 120.651 87.4006 123.604 84.717 126.455C84.4708 126.73 84.4708 126.73 84.2196 127.012C80.5706 130.936 75.5032 133.553 70.4943 135.251C70.2376 135.338 69.981 135.426 69.7165 135.516C66.2363 136.636 62.8475 136.924 59.2037 136.908C59.0026 136.907 58.8015 136.906 58.5942 136.906C48.7452 136.854 40.1605 133.06 33.1573 126.207C31.2891 124.319 29.7243 122.345 28.3593 120.057C28.2435 119.865 28.1278 119.672 28.0085 119.474C24.591 113.677 23.0558 107.646 23.0853 100.922C23.0858 100.721 23.0864 100.52 23.0869 100.312C23.1052 96.386 23.6351 93.0297 24.8905 89.3166C24.9606 89.1076 25.0308 88.8987 25.1031 88.6834C25.2741 88.1744 25.4457 87.6655 25.6175 87.1567C25.4387 87.1594 25.2598 87.1621 25.0754 87.1649C23.1973 87.1921 21.3191 87.2104 19.4408 87.2237C18.7417 87.2298 18.0427 87.238 17.3437 87.2487C12.0282 87.3273 7.99988 87.3091 3.961 83.5118C0.933947 80.3946 0.283677 76.7827 0.291997 72.5998C0.291307 72.3414 0.290616 72.0829 0.289905 71.8166C0.287987 70.9563 0.288226 70.0961 0.288478 69.2358C0.287566 68.6166 0.286529 67.9974 0.285378 67.3782C0.282692 65.7001 0.281973 64.0221 0.281779 62.3441C0.281562 61.2947 0.280911 60.2452 0.280104 59.1958C0.277288 55.5319 0.276041 51.8679 0.276281 48.204C0.276464 44.7933 0.273249 41.3826 0.268438 37.9719C0.26445 35.0395 0.262821 32.1072 0.263016 29.1748C0.263093 27.4253 0.262233 25.6758 0.259002 23.9262C0.256044 22.2802 0.256033 20.6341 0.258244 18.9881C0.258561 18.3857 0.25785 17.7834 0.256002 17.1811C0.241462 12.1098 0.336785 7.55476 3.98361 3.63047C6.98472 0.925976 10.155 0.198152 14.0735 0.215245ZM7.28225 7.98938C4.54651 11.7586 5.51155 15.8474 5.51155 20.4414C40.8981 20.4414 76.2846 20.4414 112.744 20.4414C113.26 13.2474 112.744 9.75628 110.295 7.24802C108.371 5.58927 106.268 5.17231 103.769 5.17039C103.444 5.16941 103.12 5.16843 102.785 5.16741C102.256 5.16812 102.255 5.16812 101.715 5.16884C101.337 5.16815 100.959 5.16746 100.57 5.16675C99.5238 5.16516 98.4773 5.16493 97.4308 5.16529C96.3013 5.16535 95.1718 5.16367 94.0423 5.16222C91.8303 5.1597 89.6182 5.15886 87.4061 5.15869C85.6078 5.15854 83.8095 5.15792 82.0112 5.15695C76.9111 5.15427 71.811 5.15286 66.7109 5.15309C66.2986 5.15311 66.2986 5.15311 65.8779 5.15313C65.4651 5.15315 65.4651 5.15315 65.044 5.15316C60.584 5.15329 56.1241 5.15037 51.6642 5.14608C47.0832 5.1417 42.5023 5.1396 37.9214 5.13986C35.3502 5.13996 32.779 5.13913 30.2077 5.13585C28.0185 5.13307 25.8293 5.13241 23.6401 5.13448C22.5236 5.13547 21.4072 5.13549 20.2907 5.13285C19.0792 5.13001 17.8676 5.13191 16.656 5.13426C16.1294 5.13191 16.1294 5.13191 15.5921 5.12951C12.2417 5.14387 9.69281 5.47838 7.28225 7.98938ZM5.51155 25.6202C5.51155 77.1037 5.41286 75.7392 7.28225 78.6269C8.91725 81.1526 12.3967 82.2228 15.3206 82.2445C15.6966 82.2503 16.0727 82.2561 16.4601 82.262C17.2504 82.271 18.0408 82.2759 18.8311 82.2769C20.0393 82.2826 21.2451 82.3142 22.4528 82.3468C23.2233 82.3524 23.9938 82.3564 24.7643 82.3587C25.1236 82.3712 25.4828 82.3838 25.853 82.3966C26.8922 82.3823 27.6861 82.3337 28.6639 81.9779C29.6103 80.9636 30.1773 79.858 30.7964 78.6269C31.3317 77.9158 31.9142 77.2706 32.529 76.6277C32.6849 76.4627 32.8409 76.2977 33.0016 76.1276C39.1769 69.7117 47.7307 65.4202 56.7226 65.1503C67.3779 64.9814 76.6144 67.8237 84.4123 75.2759C87.0998 77.8998 86.7573 78.1214 87.8589 79.4375C88.8765 80.6535 89.3829 81.1599 90.4321 82.2843C91.4657 82.3915 92.4521 82.3949 93.4907 82.3587C93.8659 82.3576 94.2411 82.3565 94.6276 82.3553C95.4197 82.3496 96.2117 82.3358 97.0035 82.3144C98.2093 82.2827 99.4131 82.2769 100.619 82.2754C101.391 82.2666 102.163 82.2564 102.934 82.2445C103.292 82.2418 103.649 82.2392 104.018 82.2364C106.762 82.1502 109.097 81.5114 111.049 79.4837C112.744 76.1276 112.744 77.1037 112.744 25.6202C77.357 25.6202 41.9704 25.6202 5.51155 25.6202ZM39.3262 77.1037C40.4806 78.4822 41.6718 79.7979 42.9467 81.0655C43.1174 81.2365 43.2881 81.4075 43.4641 81.5837C44.0302 82.1503 44.5975 82.7159 45.1647 83.2815C45.5732 83.6899 45.9816 84.0984 46.39 84.507C47.4945 85.6115 48.5998 86.715 49.7053 87.8184C50.8622 88.9734 52.0182 90.1292 53.1742 91.2849C55.3616 93.4713 57.5497 95.6569 59.7381 97.8422C62.2303 100.331 64.7216 102.821 67.2129 105.31C72.3358 110.43 77.4598 115.549 82.5845 120.667C87.4016 115.924 89.8725 108.8 89.9849 102.127C90.0069 98.3977 89.8145 94.9849 88.6772 91.4216C88.5817 91.1223 88.5817 91.1223 88.4843 90.817C85.7182 82.5144 79.4915 76.4789 71.8104 72.6294C60.8426 67.5635 48.6488 69.8242 39.3262 77.1037ZM35.3659 81.064C29.6254 87.9497 27.8251 96.0051 28.3593 104.826C29.2003 112.624 33.4202 119.723 39.3071 124.788C45.9383 129.946 53.8372 132.548 62.2679 131.785C68.2191 130.985 74.4444 128.738 78.9289 124.627C77.7747 123.249 76.584 121.933 75.3105 120.665C75.0547 120.409 75.0546 120.409 74.7937 120.147C74.2282 119.58 73.6617 119.015 73.0952 118.449C72.6872 118.041 72.2792 117.632 71.8713 117.224C70.7682 116.119 69.6641 115.016 68.5597 113.912C67.4039 112.757 66.2489 111.602 65.0937 110.446C63.156 108.508 61.2176 106.57 59.2789 104.633C57.0346 102.39 54.7914 100.146 52.5487 97.9019C50.6234 95.9752 48.6975 94.0491 46.771 92.1235C45.6203 90.9732 44.4697 89.8226 43.3196 88.6716C42.2404 87.5915 41.1604 86.5121 40.0798 85.4333C39.6823 85.0361 39.285 84.6387 38.888 84.241C38.3486 83.7008 37.8083 83.1616 37.2677 82.6225C37.1087 82.4628 36.9496 82.303 36.7857 82.1384C36.1797 81.3926 36.1797 81.3926 35.3659 81.064Z" fill="#FB3030"/>
<path d="M19.7146 36.2032C19.9961 36.201 20.2775 36.1989 20.5674 36.1966C20.874 36.1974 21.1806 36.1981 21.4964 36.1989C21.821 36.1974 22.1456 36.1958 22.48 36.1942C23.554 36.19 24.6279 36.1903 25.7019 36.191C26.4478 36.1898 27.1937 36.1885 27.9397 36.187C29.5036 36.1847 31.0675 36.1848 32.6314 36.1864C34.6366 36.1882 36.6416 36.183 38.6467 36.176C40.1873 36.1715 41.7279 36.1712 43.2685 36.1722C44.0078 36.172 44.7471 36.1704 45.4864 36.1673C46.5198 36.1636 47.5531 36.1656 48.5865 36.1692C48.8924 36.1668 49.1984 36.1645 49.5136 36.1621C52.136 36.182 52.136 36.182 53.3393 37.1965C53.8174 38.1527 53.7512 38.8837 53.644 39.9382C53.0264 40.8361 52.534 41.3761 51.44 41.6019C50.57 41.6604 49.712 41.6671 48.84 41.6585C48.3442 41.6625 48.3442 41.6625 47.8383 41.6666C46.7461 41.6733 45.6542 41.6688 44.562 41.6637C43.8029 41.6647 43.0437 41.6662 42.2846 41.6681C40.49 41.6707 38.6956 41.6653 36.9011 41.6572C35.4707 41.6515 34.0405 41.6535 32.6101 41.66C30.637 41.6688 28.6641 41.6702 26.691 41.6652C25.9389 41.6642 25.1868 41.6655 24.4348 41.669C23.3838 41.6729 22.3333 41.667 21.2823 41.6585C20.9711 41.6616 20.66 41.6647 20.3394 41.6678C18.904 41.6464 18.2209 41.6252 17.0432 40.7458C16.3554 39.7625 16.3031 39.2872 16.4783 38.1104C16.7429 37.3168 16.9174 36.9959 17.6327 36.5589C18.3806 36.2521 18.9086 36.2052 19.7146 36.2032Z" fill="#FB3030"/>
<path d="M20.97 49.6076C21.3729 49.606 21.3729 49.606 21.784 49.6043C22.6715 49.6016 23.559 49.6034 24.4466 49.6055C25.0634 49.6051 25.6803 49.6045 26.2972 49.6037C27.5899 49.6028 28.8826 49.6041 30.1753 49.607C31.8328 49.6104 33.4902 49.6084 35.1477 49.6048C36.4215 49.6026 37.6952 49.6033 38.969 49.6049C39.5802 49.6053 40.1914 49.6048 40.8026 49.6034C41.6565 49.6018 42.5104 49.6042 43.3643 49.6076C43.6173 49.6063 43.8702 49.6051 44.1308 49.6038C46.2998 49.6198 46.2998 49.6198 47.2467 50.2957C47.9472 51.2765 48.0246 52.1618 47.8559 53.342C47.2518 54.1579 46.7634 54.7618 45.7445 55.0064C45.0202 55.0637 44.3099 55.071 43.5833 55.0623C43.3092 55.065 43.0351 55.0676 42.7527 55.0704C41.8483 55.0771 40.9445 55.0727 40.0401 55.0675C39.4108 55.0685 38.7814 55.07 38.152 55.0719C36.8337 55.0742 35.5155 55.0709 34.1971 55.0638C32.5078 55.0551 30.8189 55.0601 29.1295 55.0692C27.8301 55.0747 26.5308 55.073 25.2314 55.069C24.6086 55.068 23.9857 55.0693 23.3629 55.0728C22.4921 55.0767 21.6218 55.0708 20.7511 55.0623C20.494 55.0654 20.237 55.0685 19.9721 55.0717C18.6608 55.048 18.1483 54.9787 17.0765 54.1496C16.3488 53.167 16.3001 52.7114 16.4784 51.5142C16.7263 50.7705 16.9168 50.4177 17.5543 49.9626C18.6765 49.5504 19.7899 49.6018 20.97 49.6076Z" fill="#FB3030"/>
<path d="M83.7672 63.2327C84.1282 63.2279 84.4891 63.2231 84.861 63.2181C85.2497 63.2196 85.6385 63.2211 86.039 63.2227C86.6395 63.2199 86.6395 63.2199 87.2522 63.217C88.0991 63.2138 88.9459 63.2152 89.7927 63.2196C90.876 63.2249 91.9587 63.2177 93.0419 63.207C94.0777 63.1987 95.1133 63.2017 96.1491 63.2036C96.5372 63.1996 96.9254 63.1956 97.3253 63.1914C100.316 63.223 100.316 63.223 101.261 64.1117C101.899 65.1097 101.995 65.5828 101.777 66.7462C101.121 67.763 100.8 68.1886 99.6441 68.5741C99.0962 68.6054 98.5473 68.6193 97.9985 68.6231C97.6619 68.6261 97.3254 68.629 96.9786 68.632C96.615 68.6333 96.2513 68.6346 95.8766 68.6359C95.5029 68.6377 95.1291 68.6394 94.744 68.6412C93.9527 68.6441 93.1615 68.6461 92.3702 68.6472C91.1593 68.6502 89.9487 68.6596 88.7379 68.6692C87.9696 68.6712 87.2012 68.6728 86.4329 68.674C86.0705 68.6778 85.708 68.6815 85.3346 68.6854C84.8269 68.684 84.8269 68.684 84.3089 68.6826C84.012 68.6837 83.7151 68.6849 83.4091 68.686C82.4313 68.5533 81.86 68.2294 81.0613 67.6601C80.4738 66.8857 80.4493 66.5076 80.4901 65.5277C81.015 63.7282 81.9582 63.2435 83.7672 63.2327Z" fill="#FB3030"/>
</svg>
