<svg width="120" height="134" viewBox="0 0 120 134" fill="none" xmlns="http://www.w3.org/2000/svg">
<path d="M77.2708 83.2587C78.1211 83.8687 78.1211 83.8687 78.7495 84.7374C79.0165 86.6708 78.3468 87.7116 77.3078 89.2474C77.1527 89.4848 76.9976 89.7222 76.8378 89.9668C76.2974 90.7904 75.7495 91.6086 75.2007 92.4265C74.8749 92.9153 74.5491 93.4041 74.2235 93.893C73.4167 95.1044 72.609 96.3152 71.7987 97.5242C70.5227 99.4297 69.2753 101.347 68.0771 103.302C66.6218 105.657 65.064 107.946 63.5208 110.244C63.3004 110.573 63.0799 110.901 62.8595 111.23C62.6466 111.547 62.4338 111.864 62.2144 112.191C61.4501 113.351 60.7216 114.531 60.0034 115.72C59.3053 116.688 58.6974 117.188 57.5305 117.453C55.1922 117.004 53.4059 114.421 51.8098 112.786C51.1869 112.162 50.5375 111.582 49.8679 111.008C48.288 109.64 46.824 108.158 45.3498 106.677C45.064 106.392 44.778 106.108 44.4921 105.823C44.2235 105.554 43.9549 105.285 43.6782 105.008C43.4347 104.764 43.1911 104.52 42.9401 104.269C42.0437 103.312 41.9723 102.605 41.9985 101.292C42.0783 100.707 42.0783 100.707 42.5219 99.9678C43.3554 99.4677 44.0226 99.3032 44.9976 99.3527C45.7774 99.5651 46.1593 99.8924 46.7528 100.438C46.9583 100.626 47.1639 100.814 47.3756 101.008C48.3192 101.904 49.2482 102.813 50.1648 103.737C50.3584 103.931 50.5519 104.125 50.7514 104.325C51.3606 104.936 51.9688 105.548 52.5769 106.16C52.9935 106.578 53.4101 106.996 53.8268 107.414C54.8404 108.431 55.853 109.448 56.8651 110.466C58.3044 108.438 59.6896 106.38 61.0423 104.293C61.3302 103.85 61.3302 103.85 61.6238 103.398C62.0175 102.793 62.4109 102.187 62.804 101.581C63.3284 100.773 63.8533 99.9655 64.3786 99.158C65.0104 98.1866 65.6419 97.2151 66.2732 96.2434C66.9136 95.2574 67.5544 94.2716 68.1954 93.286C68.4387 92.9118 68.4387 92.9118 68.6869 92.53C69.0091 92.0347 69.3316 91.5396 69.6545 91.0448C70.4406 89.8389 71.219 88.6292 71.9834 87.4094C72.2035 87.061 72.2035 87.061 72.428 86.7055C72.7039 86.2681 72.9775 85.8292 73.2485 85.3887C74.3375 83.6692 75.192 82.9617 77.2708 83.2587Z" fill="#69FAC2"/>
<path d="M14.2093 0.0421813C14.6192 0.0409456 15.029 0.0393249 15.4389 0.0373549C16.5596 0.0330937 17.6802 0.0343312 18.8008 0.036517C20.0116 0.037919 21.2224 0.0342144 22.4332 0.0311886C24.8031 0.0261091 27.173 0.0258564 29.5429 0.027407C31.4697 0.0286034 33.3965 0.0281741 35.3233 0.0265943C35.5978 0.0263729 35.8722 0.0261516 36.155 0.0259236C36.7127 0.0254706 37.2703 0.0250157 37.828 0.0245587C43.0548 0.020501 48.2817 0.022107 53.5085 0.0255007C58.2871 0.0284378 63.0657 0.0246114 67.8443 0.0175353C72.7546 0.0103192 77.6649 0.00748132 82.5752 0.00944774C85.3305 0.0104799 88.0858 0.00982432 90.8411 0.00464173C93.1866 0.000284407 95.5322 0.000104535 97.8778 0.00525417C99.0737 0.00776875 100.27 0.00841185 101.466 0.00387854C102.562 -0.000225951 103.658 0.00120407 104.755 0.00690665C105.336 0.00853825 105.917 0.00439738 106.498 0C110.189 0.0305245 113.256 1.12843 115.994 3.63982C119.905 7.76138 119.649 13.1878 119.638 18.4925C119.638 19.1166 119.639 19.7407 119.641 20.3648C119.643 22.0512 119.642 23.7376 119.641 25.424C119.639 27.1937 119.64 28.9634 119.641 30.7332C119.642 33.7044 119.641 36.6756 119.638 39.6468C119.635 43.0758 119.636 46.5048 119.639 49.9338C119.642 52.8845 119.642 55.8352 119.641 58.7858C119.64 60.5453 119.64 62.3047 119.642 64.0641C119.643 65.7186 119.642 67.3731 119.639 69.0277C119.638 69.6328 119.638 70.2379 119.64 70.843C119.649 75.8977 119.639 80.9181 115.959 84.8586C112.568 87.8202 109.338 88.4221 104.976 88.3728C104.543 88.3711 104.109 88.3699 103.675 88.369C102.542 88.3656 101.409 88.3569 100.275 88.3471C99.1154 88.3379 97.9556 88.3339 96.7958 88.3295C94.5263 88.32 92.2569 88.3049 89.9875 88.2861C90.0874 88.5934 90.1873 88.9007 90.2902 89.2172C91.4992 92.9759 92.1741 96.283 92.1686 100.263C92.1683 100.557 92.1683 100.557 92.1681 100.856C92.1559 104.088 91.8962 107.095 90.8747 110.171C90.8113 110.363 90.7479 110.555 90.6826 110.752C89.3502 114.642 87.3435 118.287 84.6643 121.409C84.4492 121.666 84.2342 121.924 84.0127 122.189C79.6573 127.219 73.9173 130.416 67.5116 132.055C67.2664 132.124 67.0213 132.192 66.7688 132.263C58.4525 134.295 49.5958 132.251 42.3658 127.981C41.0797 127.183 39.9439 126.268 38.8252 125.253C38.5778 125.044 38.3304 124.835 38.0754 124.619C32.2725 119.621 28.6991 112.377 27.5872 104.847C27.2315 99.1265 27.4932 93.6535 29.6574 88.2861C29.4201 88.2888 29.1828 88.2914 28.9383 88.2941C26.6892 88.3179 24.4403 88.3359 22.1912 88.3474C21.0352 88.3536 19.8794 88.3619 18.7234 88.3754C17.6055 88.3884 16.4877 88.3953 15.3697 88.3984C14.9456 88.4005 14.5215 88.4048 14.0975 88.4112C9.89493 88.4725 6.83167 87.5327 3.6326 84.7373C-0.260825 80.6419 -0.004199 75.2289 0.00723656 69.9505C0.00643393 69.3264 0.00538016 68.7023 0.00409581 68.0782C0.00141123 66.3918 0.0024403 64.7054 0.00432031 63.019C0.00582384 61.2493 0.00442706 59.4795 0.00350015 57.7098C0.00242584 54.7386 0.00383761 51.7674 0.00665895 48.7962C0.0098775 45.3671 0.00883422 41.9382 0.00557819 38.5092C0.00288912 35.5585 0.00251879 32.6078 0.00406422 29.6571C0.00498359 27.8977 0.00511634 26.1383 0.00315494 24.3789C0.00143911 22.7243 0.00264488 21.0698 0.00604976 19.4153C0.00682796 18.8102 0.00661391 18.2051 0.00530293 17.5999C-0.00505789 12.3294 0.0919294 7.40675 3.93527 3.33484C7.00442 0.623548 10.2316 0.0234109 14.2093 0.0421813ZM6.95732 7.80322C3.97751 11.4092 5.11128 16.5211 5.11128 20.8583C41.2206 20.8583 77.33 20.8583 114.534 20.8583C114.534 8.8033 115.342 9.76466 112.976 7.04264C110.849 4.59614 106.42 4.80057 102.938 4.8135C102.362 4.81212 102.362 4.81212 101.773 4.8107C100.713 4.80825 99.6536 4.80945 98.5938 4.81129C97.4479 4.81263 96.3021 4.81056 95.1562 4.80893C92.9143 4.80631 90.6725 4.80687 88.4306 4.80859C86.608 4.80992 84.7854 4.8101 82.9628 4.80946C82.7031 4.80937 82.4433 4.80928 82.1757 4.80918C81.6479 4.809 81.1202 4.8088 80.5925 4.80861C75.648 4.80692 70.7035 4.80886 65.759 4.81204C61.5197 4.81468 57.2803 4.81422 53.041 4.8115C48.1138 4.80833 43.1866 4.80709 38.2593 4.8089C37.7336 4.80909 37.2078 4.80928 36.6821 4.80946C36.2941 4.8096 36.2941 4.8096 35.8982 4.80974C34.0786 4.81025 32.2589 4.80939 30.4393 4.80799C28.2207 4.80633 26.002 4.80679 23.7834 4.80993C22.6522 4.81148 21.521 4.8121 20.3898 4.81014C19.162 4.80804 17.9342 4.81055 16.7064 4.8135C16.3511 4.81218 15.9958 4.81086 15.6298 4.8095C12.0637 4.82609 9.48077 5.13958 6.95732 7.80322ZM5.11128 25.8859C5.11128 76.6501 4.40165 76.6501 7.47717 81.1885C9.15332 82.7787 10.8921 83.3594 13.164 83.4251C13.3668 83.4318 13.5695 83.4386 13.7784 83.4456C14.4428 83.4659 15.107 83.4793 15.7716 83.4908C16.1151 83.4974 16.1151 83.4974 16.4654 83.504C17.6772 83.5259 18.8889 83.5416 20.1008 83.553C21.3448 83.5661 22.587 83.6028 23.8303 83.6447C24.794 83.6724 25.7572 83.6816 26.7212 83.686C27.1793 83.6914 27.6373 83.7037 28.0949 83.7235C30.8116 83.7235 29.1752 84.4338 31.3984 83.4251C32.3514 82.4329 33.1073 81.0918 34.6263 80.1101C35.2273 79.1832 36.6372 77.8946 37.4204 77.1221C37.5781 76.9663 37.7358 76.8106 37.8983 76.6501C43.7695 71.0368 51.6682 68.3497 59.693 68.3609C59.8879 68.3611 60.0827 68.3613 60.2834 68.3614C63.5225 68.3737 66.5046 68.6329 69.5817 69.6548C69.7737 69.7182 69.9657 69.7815 70.1635 69.8468C75.6613 71.7301 82.1534 75.4066 85.1683 80.5736C86.0395 81.9914 86.7022 83.0649 88.3664 83.5819C89.6381 83.694 90.8657 83.6982 92.1397 83.6572C92.6062 83.6543 93.0727 83.6528 93.5392 83.6526C94.5138 83.6485 95.4873 83.6327 96.4616 83.6076C97.703 83.5758 98.9433 83.5659 100.185 83.5639C101.148 83.5612 102.11 83.5505 103.072 83.5371C103.53 83.531 103.987 83.5264 104.444 83.5234C107.479 83.4948 109.915 83.1858 112.297 81.17C115.959 78.0713 114.534 73.9477 114.534 25.8859C78.4242 25.8859 42.3149 25.8859 5.11128 25.8859ZM40.0821 81.2809C34.7337 86.8834 32.4144 93.7846 32.4748 101.415C32.5908 105.697 33.556 109.325 35.5721 113.128C35.7945 113.569 35.7945 113.569 36.0215 114.019C39.4702 120.438 45.6252 124.721 52.4624 126.86C53.6295 127.21 54.7688 127.469 55.9779 127.619C56.2786 127.658 56.5794 127.698 56.8893 127.738C64.0974 128.471 71.3261 126.366 76.9936 121.834C77.4858 121.402 77.973 120.965 78.4538 120.521C78.6616 120.337 78.8693 120.153 79.0834 119.963C83.8598 115.505 86.8287 108.894 87.141 102.406C87.2825 97.3227 86.7619 92.835 84.3685 88.2861C84.2381 88.0201 84.1078 87.754 83.9734 87.4798C82.8862 85.3474 81.5192 83.5657 79.9325 81.78C79.7472 81.5699 79.5619 81.3598 79.371 81.1434C74.4342 75.8838 67.3556 73.2374 60.2623 72.9206C52.5469 72.7873 45.6241 76.0462 40.0821 81.2809Z" fill="#69FAC2"/>
<path d="M21.4491 36.6799C21.7849 36.6783 22.1207 36.6767 22.4667 36.675C23.5764 36.6713 24.6859 36.6762 25.7955 36.6815C26.5664 36.6815 27.3372 36.6811 28.108 36.6802C29.7232 36.6794 31.3383 36.6834 32.9535 36.6903C34.8201 36.6981 36.6865 36.6987 38.5531 36.6952C40.3502 36.692 42.1473 36.6939 43.9444 36.698C44.7086 36.6994 45.4728 36.6994 46.237 36.6983C47.304 36.6974 48.3708 36.7023 49.4377 36.7088C49.7547 36.7074 50.0717 36.7061 50.3983 36.7047C50.6889 36.7077 50.9795 36.7106 51.2789 36.7136C51.5311 36.7143 51.7832 36.715 52.043 36.7158C52.8791 36.8537 53.2885 37.1469 53.9078 37.7155C54.2712 38.7325 54.2992 39.7507 54.0002 40.7837C53.3839 41.5468 52.7211 41.823 51.7519 41.9318C51.377 41.9333 51.377 41.9333 50.9944 41.9348C50.7063 41.9374 50.4182 41.9399 50.1213 41.9425C49.8071 41.9422 49.4929 41.942 49.1692 41.9417C48.8368 41.9437 48.5044 41.9457 48.1619 41.9477C47.0617 41.9533 45.9615 41.9545 44.8613 41.9551C44.0974 41.957 43.3335 41.959 42.5696 41.9611C40.9678 41.9646 39.366 41.9657 37.7643 41.9654C35.914 41.965 34.0638 41.9713 32.2136 41.9806C30.4321 41.9893 28.6507 41.9914 26.8692 41.991C26.1118 41.9917 25.3545 41.9943 24.5971 41.9989C23.5387 42.0047 22.4804 42.003 21.422 41.9994C20.9515 42.0044 20.9515 42.0044 20.4716 42.0095C19.1411 41.9981 18.3495 41.9911 17.1905 41.2963C16.5688 40.5856 16.4442 40.2763 16.4602 39.342C16.4564 39.1194 16.4526 38.8967 16.4487 38.6674C17.1355 36.3725 19.5084 36.6623 21.4491 36.6799Z" fill="#69FAC2"/>
<path d="M21.0757 50.3799C21.3475 50.3779 21.6193 50.376 21.8993 50.374C22.7995 50.3681 23.6997 50.3647 24.5999 50.3617C25.0608 50.3599 25.0608 50.3599 25.5311 50.3581C27.1569 50.3519 28.7828 50.3477 30.4086 50.3449C32.089 50.3416 33.7692 50.3315 35.4495 50.3197C36.7409 50.312 38.0322 50.3095 39.3236 50.3085C39.9431 50.307 40.5626 50.3036 41.1821 50.2981C42.0487 50.2909 42.915 50.2912 43.7816 50.2932C44.0376 50.2894 44.2936 50.2856 44.5573 50.2817C45.7437 50.292 46.3689 50.345 47.4072 50.9677C48.2108 51.8558 48.2677 52.5029 48.2888 53.6853C47.9629 54.6902 47.7207 54.8527 46.8101 55.4597C46.2516 55.5358 46.2516 55.5358 45.6111 55.5388C45.3677 55.5413 45.1244 55.5438 44.8736 55.5464C44.4747 55.546 44.4747 55.546 44.0677 55.5456C43.6463 55.5486 43.6463 55.5486 43.2165 55.5517C42.286 55.5573 41.3557 55.5584 40.4252 55.5591C39.7795 55.561 39.1339 55.563 38.4882 55.565C37.134 55.5686 35.7798 55.5697 34.4257 55.5693C32.6889 55.5693 30.9523 55.5773 29.2156 55.5875C27.8819 55.5941 26.5482 55.5953 25.2145 55.595C24.5741 55.5957 23.9337 55.5983 23.2933 55.6029C22.3983 55.6087 21.5037 55.607 20.6087 55.6034C20.3433 55.6067 20.078 55.61 19.8046 55.6135C18.0098 55.5952 18.0098 55.5952 17.0719 54.8962C16.3922 53.9098 16.4462 53.064 16.6451 51.9109C17.6165 50.1067 19.2438 50.3855 21.0757 50.3799Z" fill="#69FAC2"/>
<path d="M84.9443 64.2794C85.3135 64.2756 85.6826 64.2718 86.063 64.2679C86.4678 64.2655 86.8726 64.2633 87.2774 64.2613C87.481 64.2601 87.6845 64.2589 87.8942 64.2576C88.9713 64.2515 90.0484 64.2472 91.1255 64.2445C92.238 64.2412 93.3504 64.231 94.4628 64.2193C95.3183 64.2115 96.1738 64.2091 97.0293 64.208C97.4394 64.2066 97.8495 64.2031 98.2596 64.1976C98.8336 64.1904 99.4077 64.1914 99.9818 64.1928C100.308 64.191 100.635 64.1893 100.971 64.1875C102.012 64.365 102.357 64.6948 103 65.5147C103.275 66.6219 103.149 67.6039 102.612 68.6014C101.682 69.4627 100.726 69.4002 99.5194 69.4116C99.169 69.4154 98.8186 69.4192 98.4576 69.4231C97.8892 69.4264 97.8892 69.4264 97.3094 69.4297C96.9203 69.4321 96.5312 69.4345 96.1303 69.437C95.3064 69.4414 94.4826 69.4443 93.6587 69.4465C92.6049 69.4498 91.5513 69.46 90.4975 69.4717C89.4904 69.4813 88.4833 69.4827 87.4761 69.4852C86.9096 69.4929 86.9096 69.4929 86.3315 69.5009C85.9793 69.5 85.627 69.4991 85.264 69.4982C84.9548 69.5 84.6455 69.5017 84.3269 69.5035C83.2554 69.3207 82.7654 68.9389 82.0027 68.1763C81.6579 66.991 81.5791 66.3863 82.0951 65.2559C82.9464 64.184 83.628 64.2911 84.9443 64.2794Z" fill="#69FAC2"/>
</svg>
