<svg width="160" height="139" viewBox="0 0 160 139" fill="none" xmlns="http://www.w3.org/2000/svg">
<g filter="url(#filter0_d_41_6662)">
<path d="M34.0829 43.3448C38.6252 42.9822 44.4251 41.8918 47.6604 38.8298C53.3427 44.4748 62.0552 46.0025 69.828 46.0022C73.3917 46.0019 76.7579 45.6805 79.543 45.2871L79.2406 38.5011C76.516 38.8751 73.2638 39.1739 69.828 39.1739C62.0549 39.1742 53.3427 37.6465 47.6604 32.0014C44.413 35.0746 38.5822 36.1617 34.0327 36.5204L34.0829 43.3448Z" fill="white"/>
<path d="M6.56368 123.405H152.659C152.659 123.405 154.868 128.927 141.142 128.927C127.416 128.927 10.5078 128.927 10.5078 128.927C10.5078 128.927 5.62293 128.166 6.56368 123.405Z" fill="white"/>
<path d="M148.632 108.983C147.796 108.983 147.12 109.66 147.12 110.495C147.12 111.33 147.796 112.007 148.632 112.007C149.578 112.007 150.45 112.392 151.088 113.091C151.726 113.79 152.03 114.694 151.944 115.636L151.093 124.952C150.935 126.676 149.511 127.976 147.78 127.976H11.3061C9.57516 127.976 8.15088 126.676 7.99364 124.952L7.1424 115.636C7.05622 114.694 7.36012 113.79 7.99817 113.091C8.63592 112.392 9.50863 112.007 10.4548 112.007C11.29 112.007 11.9668 111.33 11.9668 110.495C11.9668 109.66 11.29 108.983 10.4548 108.983C8.67433 108.983 6.96489 109.737 5.76469 111.053C4.56419 112.367 3.96908 114.139 4.13086 115.911L4.9821 125.228C5.28298 128.519 8.0015 131 11.3061 131H147.78C151.085 131 153.803 128.518 154.104 125.228L154.956 115.911C155.117 114.139 154.522 112.367 153.322 111.053C152.121 109.737 150.412 108.983 148.632 108.983Z" fill="white"/>
<path d="M101.459 115.892C101.131 117.413 99.7635 118.517 98.2077 118.517H60.8781C59.3223 118.517 57.9552 117.413 57.6268 115.892C57.4505 115.076 56.6467 114.557 55.8296 114.733C55.0135 114.91 54.4946 115.714 54.6709 116.53C55.298 119.433 57.9086 121.541 60.8781 121.541H98.2077C101.177 121.541 103.788 119.433 104.415 116.53C104.591 115.714 104.072 114.91 103.256 114.733C102.439 114.557 101.636 115.076 101.459 115.892Z" fill="white"/>
<path d="M18.5058 112.007H140.581C144.082 112.007 146.931 109.159 146.931 105.657V47.376C146.931 46.5411 146.254 45.864 145.419 45.864C144.584 45.864 143.907 46.5411 143.907 47.376V105.657C143.907 107.491 142.415 108.983 140.581 108.983H92.4302L90.4274 98.7128C88.3161 87.8871 79.1318 79.8939 68.2586 79.1543C72.9034 76.6341 76.6458 72.6594 78.8823 67.8484C86.6221 66.66 92.569 59.9556 92.569 51.8883V46.5892C92.569 42.6127 90.6004 38.9069 87.3037 36.6755C85.1649 35.2948 83.7158 39.3725 86.2465 39.6538C88.3252 41.3454 89.545 43.8837 89.545 46.5895C89.545 51.3301 85.835 55.2186 81.1663 55.5092V39.4466C81.1663 38.6117 80.4896 37.9347 79.6544 37.9347C78.8191 37.9347 78.1424 38.6117 78.1424 39.4466V57.5144C78.1424 60.1461 77.667 62.6687 76.8007 65.0025C76.6746 65.0062 76.5488 65.0122 76.4218 65.0122H70.7794C69.9442 65.0122 69.2674 65.6893 69.2674 66.5242C69.2674 67.3591 69.9442 68.0362 70.7794 68.0362H75.3933C71.6966 74.6253 64.6465 79.0908 56.5693 79.0929H56.5575C44.6613 79.0899 34.9844 69.4108 34.9844 57.5144V37.5113C34.9844 36.6764 34.3077 35.9993 33.4725 35.9993C32.6373 35.9993 31.9605 36.6764 31.9605 37.5113V55.5092C27.2918 55.2186 23.5818 51.3301 23.5818 46.5895C23.5818 43.5924 25.108 40.7796 27.596 39.1312C27.6508 39.1197 27.7052 39.1052 27.7596 39.0874C28.5528 38.8273 28.9852 37.9731 28.7249 37.1796L28.6986 37.0979C28.5583 36.6616 28.2274 36.3123 27.7996 36.1484C27.3714 35.9848 26.8921 36.0235 26.4962 36.2549C22.833 38.3943 20.5572 42.3541 20.5572 46.5892C20.5572 53.0063 25.6365 58.2576 31.9859 58.5386C32.353 67.4419 37.4695 75.1403 44.8676 79.1546C33.9941 79.8942 24.8101 87.8874 22.6988 98.7131L20.696 108.984H18.5052C16.6712 108.984 15.1789 107.491 15.1789 105.657V30.0721C15.1789 28.2381 16.6712 26.7458 18.5052 26.7458H24.8558C25.691 26.7458 26.3677 26.0687 26.3677 25.2338C26.3677 24.3989 25.691 23.7218 24.8558 23.7218H18.5058C15.0044 23.7218 12.1555 26.5704 12.1555 30.0721V105.657C12.1555 109.159 15.0044 112.007 18.5058 112.007ZM81.1403 58.5383C84.2928 58.3989 87.1304 57.0335 89.1903 54.9086C88.1087 59.4811 84.6311 63.135 80.1596 64.4661C80.7182 62.574 81.0556 60.5888 81.1403 58.5383ZM76.3253 103.259C77.1605 103.259 77.8373 103.936 77.8373 104.771V108.983H74.8133V104.771C74.8133 103.936 75.4901 103.259 76.3253 103.259ZM35.2895 104.771C35.2895 103.936 35.9663 103.259 36.8015 103.259C37.6367 103.259 38.3135 103.936 38.3135 104.771V108.983H35.2895V104.771Z" fill="white"/>
<path d="M148.863 0.774704H104.149C100.648 0.774704 97.7987 3.62325 97.7987 7.12497V23.7219H88.3132C87.478 23.7219 86.8013 24.3989 86.8013 25.2338C86.8013 26.0687 87.478 26.7458 88.3132 26.7458H97.7987V36.4898C97.7987 38.404 98.6835 40.2223 100.154 41.4185V44.7385C100.154 45.9681 100.838 47.0721 101.939 47.6194C102.397 47.8468 102.888 47.959 103.375 47.959C104.061 47.959 104.741 47.7377 105.314 47.3037L111.211 42.8395H148.863C152.364 42.8395 155.213 39.9909 155.213 36.4892V7.12497C155.213 3.62356 152.364 0.774704 148.863 0.774704ZM152.189 36.4898C152.189 38.3238 150.697 39.8162 148.863 39.8162H111.211C110.552 39.8162 109.912 40.0315 109.386 40.4291L103.489 44.8934C103.451 44.9218 103.414 44.9357 103.375 44.9357C103.347 44.9357 103.317 44.9281 103.286 44.9124C103.212 44.8758 103.178 44.8211 103.178 44.7391V41.4189C103.178 40.5086 102.769 39.6471 102.062 39.0729C101.286 38.4415 100.823 37.4759 100.823 36.4898V7.12497C100.823 5.29096 102.315 3.79864 104.149 3.79864H148.863C150.697 3.79864 152.189 5.29096 152.189 7.12497V36.4898Z" fill="white"/>
<path d="M65.967 64.3279C67.1778 64.3279 68.163 65.3128 68.163 66.5236C68.163 67.7344 67.1778 68.7193 65.967 68.7193H63.6008C62.39 68.7193 61.4048 67.7344 61.4048 66.5236C61.4048 65.3128 62.39 64.3279 63.6008 64.3279H65.967ZM65.967 61.304H63.6008C60.7223 61.304 58.3809 63.6454 58.3809 66.5236C58.3809 69.4018 60.7223 71.7432 63.6008 71.7432H65.967C68.8455 71.7432 71.1869 69.4018 71.1869 66.5236C71.1869 63.6454 68.8455 61.304 65.967 61.304Z" fill="white"/>
<path d="M75.1973 85.4235L66.449 95.225L59.1014 92.0704L65.9068 84.5299C66.4662 83.91 66.4173 82.9539 65.7974 82.3944C65.1771 81.8347 64.2213 81.884 63.6618 82.5039L56.5632 90.3695L49.87 82.9532C49.3105 82.3336 48.3547 82.2844 47.7345 82.8438C47.1143 83.4032 47.0656 84.3594 47.625 84.9793L54.0249 92.0707L46.6773 95.2253L37.929 85.4238C37.3726 84.8009 36.4168 84.7464 35.7941 85.3025C35.1709 85.8586 35.1168 86.8145 35.6729 87.4374L45.1457 98.0509C45.439 98.3793 45.8524 98.5559 46.2739 98.5559C46.4747 98.5559 46.6776 98.5159 46.8702 98.4331L55.0509 94.9208V108.984H58.0748V94.9208L66.2555 98.4331C66.8524 98.6898 67.547 98.5356 67.98 98.0506L77.4528 87.4371C78.0089 86.8139 77.9545 85.8583 77.3316 85.3022C76.7092 84.7461 75.7531 84.8006 75.1973 85.4235Z" fill="#52ACFF" fill-opacity="0.54"/>
<path d="M84.9507 10.608C80.6924 4.38045 74.1634 0.744774 67.0384 0.633493C53.9254 0.434518 48.3955 6.51112 46.5391 9.34425C42.6518 7.55105 31.4001 3.30061 26.0362 11.2297C19.9774 20.1866 25.6116 37.4003 25.8542 38.1288C26.051 38.72 26.5908 39.1297 27.2128 39.1609C28.9165 39.2456 42.5847 39.7418 47.3426 34.0879C52.8582 40.1264 61.7713 41.7418 69.733 41.7418C78.5215 41.7418 86.1509 39.7726 86.7681 39.609C87.2428 39.4832 87.6272 39.1346 87.7983 38.674C91.4004 28.9754 90.3357 18.4835 84.9507 10.608Z" fill="white"/>
<path d="M143.196 17.6168H109.816C108.981 17.6168 108.304 16.9398 108.304 16.1049C108.304 15.27 108.981 14.5929 109.816 14.5929H143.196C144.031 14.5929 144.708 15.27 144.708 16.1049C144.708 16.9398 144.031 17.6168 143.196 17.6168Z" fill="white"/>
<path d="M143.196 29.0222H124.933C124.098 29.0222 123.421 28.3452 123.421 27.5103C123.421 26.6754 124.098 25.9983 124.933 25.9983H143.196C144.031 25.9983 144.707 26.6754 144.707 27.5103C144.707 28.3452 144.031 29.0222 143.196 29.0222Z" fill="white"/>
<path d="M115.79 29.0222H109.816C108.981 29.0222 108.304 28.3452 108.304 27.5103C108.304 26.6754 108.981 25.9983 109.816 25.9983H115.79C116.625 25.9983 117.302 26.6754 117.302 27.5103C117.302 28.3452 116.625 29.0222 115.79 29.0222Z" fill="white"/>
</g>
<defs>
<filter id="filter0_d_41_6662" x="0.104736" y="0.628723" width="159.108" height="138.371" filterUnits="userSpaceOnUse" color-interpolation-filters="sRGB">
<feFlood flood-opacity="0" result="BackgroundImageFix"/>
<feColorMatrix in="SourceAlpha" type="matrix" values="0 0 0 0 0 0 0 0 0 0 0 0 0 0 0 0 0 0 127 0" result="hardAlpha"/>
<feOffset dy="4"/>
<feGaussianBlur stdDeviation="2"/>
<feComposite in2="hardAlpha" operator="out"/>
<feColorMatrix type="matrix" values="0 0 0 0 0 0 0 0 0 0 0 0 0 0 0 0 0 0 0.25 0"/>
<feBlend mode="normal" in2="BackgroundImageFix" result="effect1_dropShadow_41_6662"/>
<feBlend mode="normal" in="SourceGraphic" in2="effect1_dropShadow_41_6662" result="shape"/>
</filter>
</defs>
</svg>
