<svg width="68" height="69" viewBox="0 0 68 69" fill="none" xmlns="http://www.w3.org/2000/svg">
<g filter="url(#filter0_d_11_38)">
<path d="M33.7104 0.954712C17.3501 0.954712 4.09473 14.2101 4.09473 30.5703C4.09473 46.9306 17.3501 60.186 33.7104 60.186C50.0706 60.186 63.326 46.9306 63.326 30.5703C63.326 14.2101 50.0706 0.954712 33.7104 0.954712ZM33.7104 12.4188C39.5141 12.4188 44.2191 17.1239 44.2191 22.9276C44.2191 28.7313 39.5141 33.4364 33.7104 33.4364C27.9066 33.4364 23.2016 28.7313 23.2016 22.9276C23.2016 17.1239 27.9066 12.4188 33.7104 12.4188ZM33.7104 53.4986C26.7005 53.4986 20.4191 50.3221 16.2156 45.3543C18.4607 41.1269 22.8553 38.2131 27.9783 38.2131C28.2649 38.2131 28.5515 38.2608 28.8262 38.3444C30.3786 38.846 32.0027 39.1684 33.7104 39.1684C35.418 39.1684 37.0541 38.846 38.5945 38.3444C38.8692 38.2608 39.1558 38.2131 39.4424 38.2131C44.5654 38.2131 48.96 41.1269 51.2051 45.3543C47.0016 50.3221 40.7202 53.4986 33.7104 53.4986Z" fill="white"/>
</g>
<defs>
<filter id="filter0_d_11_38" x="0.0947266" y="0.954712" width="67.2313" height="67.2313" filterUnits="userSpaceOnUse" color-interpolation-filters="sRGB">
<feFlood flood-opacity="0" result="BackgroundImageFix"/>
<feColorMatrix in="SourceAlpha" type="matrix" values="0 0 0 0 0 0 0 0 0 0 0 0 0 0 0 0 0 0 127 0" result="hardAlpha"/>
<feOffset dy="4"/>
<feGaussianBlur stdDeviation="2"/>
<feComposite in2="hardAlpha" operator="out"/>
<feColorMatrix type="matrix" values="0 0 0 0 0 0 0 0 0 0 0 0 0 0 0 0 0 0 0.25 0"/>
<feBlend mode="normal" in2="BackgroundImageFix" result="effect1_dropShadow_11_38"/>
<feBlend mode="normal" in="SourceGraphic" in2="effect1_dropShadow_11_38" result="shape"/>
</filter>
</defs>
</svg>
