<svg width="63" height="21" viewBox="0 0 63 21" fill="none" xmlns="http://www.w3.org/2000/svg">
<path fill-rule="evenodd" clip-rule="evenodd" d="M25.4489 0.442496L22.245 20.1325H27.3709L30.5752 0.442496H25.4489ZM17.9321 0.442496L13.0448 13.9851L12.4667 11.0689L12.4671 11.0699L12.3397 10.4163C11.7483 9.14153 10.3784 6.71878 7.79163 4.65117C7.02687 4.04002 6.25597 3.51845 5.51074 3.07292L9.95249 20.1325H15.2934L23.4492 0.442496H17.9321ZM37.9379 5.90883C37.9379 3.6827 42.9302 3.96875 45.1239 5.17753L45.8553 0.948644C45.8553 0.948644 43.5978 0.0900879 41.2446 0.0900879C38.7006 0.0900879 32.6598 1.20261 32.6598 6.60832C32.6598 11.6958 39.75 11.759 39.75 14.43C39.75 17.1009 33.3908 16.6236 31.2922 14.9387L30.5295 19.3589C30.5295 19.3589 32.8183 20.4714 36.3163 20.4714C39.8139 20.4714 45.0919 18.6594 45.0919 13.7305C45.0919 8.61122 37.9379 8.13442 37.9379 5.90883ZM58.8557 0.442496H54.7343C52.8312 0.442496 52.3678 1.90988 52.3678 1.90988L44.7232 20.1325H50.0662L51.135 17.208H57.6517L58.2529 20.1325H62.9597L58.8557 0.442496ZM52.6122 13.1674L55.3058 5.79892L56.8212 13.1674H52.6122Z" fill="#005BAC"/>
<path fill-rule="evenodd" clip-rule="evenodd" d="M10.8124 2.29622C10.8124 2.29622 10.6002 0.519165 8.33505 0.519165H0.10543L0.0090332 0.853139C0.0090332 0.853139 3.96484 1.65954 7.75994 4.68074C11.3867 7.56826 12.5698 11.1677 12.5698 11.1677L10.8124 2.29622Z" fill="#F6AC1D"/>
</svg>
